<?xml version="1.0" ?>
<svg xmlns:inkscape="http://www.inkscape.org/namespaces/inkscape" xmlns:sodipodi="http://sodipodi.sourceforge.net/DTD/sodipodi-0.dtd" xmlns="http://www.w3.org/2000/svg" width="512" height="512" viewBox="0 0 512 512" version="1.1" id="svg_1" sodipodi:docname="20" inkscape:export-xdpi="96" inkscape:export-ydpi="96" style="fill: none; stroke: none">
   <defs>
      <radialGradient cx="0" cy="0" r="186.0" fx="0.0" fy="0.0" id="radialGradient_2" inkscape:label="20gooofodfsdffd" gradientUnits="userSpaceOnUse">
         <stop offset="0%" stop-color="rgb(0, 0, 0)" stop-opacity="1"/>
         <stop offset="50.0%" stop-color="rgb(15, 0, 34)" stop-opacity="1"/>
         <stop offset="100%" stop-color="rgb(30, 0, 68)" stop-opacity="1"/>
      </radialGradient>
      <radialGradient cx="0" cy="0" r="186.0" fx="0.0" fy="0.0" id="radialGradient_3" inkscape:label="20gooofodfsdffd" gradientUnits="userSpaceOnUse">
         <stop offset="0%" stop-color="rgb(0, 0, 0)" stop-opacity="1"/>
         <stop offset="50.0%" stop-color="rgb(15, 0, 34)" stop-opacity="1"/>
         <stop offset="100%" stop-color="rgb(30, 0, 68)" stop-opacity="1"/>
      </radialGradient>
      <linearGradient x1="-0.081" y1="-142.528" x2="-0.081" y2="102.397" id="linearGradient_4" inkscape:label="20=['sd;fs[pdfs" gradientUnits="userSpaceOnUse">
         <stop offset="14.499999999999998%" stop-color="rgb(171, 55, 255)" stop-opacity="1"/>
         <stop offset="74.9%" stop-color="rgb(117, 28, 210)" stop-opacity="1"/>
         <stop offset="100%" stop-color="rgb(62, 0, 166)" stop-opacity="1"/>
      </linearGradient>
      <linearGradient x1="-0.081" y1="-142.528" x2="-0.081" y2="102.397" id="linearGradient_5" inkscape:label="20=['sd;fs[pdfs" gradientUnits="userSpaceOnUse">
         <stop offset="14.499999999999998%" stop-color="rgb(171, 55, 255)" stop-opacity="1"/>
         <stop offset="74.9%" stop-color="rgb(117, 28, 210)" stop-opacity="1"/>
         <stop offset="100%" stop-color="rgb(62, 0, 166)" stop-opacity="1"/>
      </linearGradient>
      <linearGradient x1="2.992" y1="33.446" x2="23.402" y2="-115.253" id="linearGradient_6" inkscape:label="20=-sd=-fsdpfsdpf" gradientUnits="userSpaceOnUse">
         <stop offset="32.6%" stop-color="rgb(0, 0, 84)" stop-opacity="1"/>
         <stop offset="71.8%" stop-color="rgb(44, 0, 128)" stop-opacity="0.5"/>
         <stop offset="100%" stop-color="rgb(87, 0, 172)" stop-opacity="0"/>
      </linearGradient>
      <linearGradient x1="2.992" y1="33.446" x2="23.402" y2="-115.253" id="linearGradient_8" inkscape:label="20=-sd=-fsdpfsdpf" gradientUnits="userSpaceOnUse">
         <stop offset="32.6%" stop-color="rgb(0, 0, 84)" stop-opacity="1"/>
         <stop offset="71.8%" stop-color="rgb(44, 0, 128)" stop-opacity="0.5"/>
         <stop offset="100%" stop-color="rgb(87, 0, 172)" stop-opacity="0"/>
      </linearGradient>
      <linearGradient x1="-60.772" y1="5.962" x2="76.8" y2="-33.016" id="linearGradient_9" inkscape:label="20=s-d=fsdfkospdf" gradientUnits="userSpaceOnUse">
         <stop offset="3.3000000000000003%" stop-color="rgb(0, 0, 84)" stop-opacity="1"/>
         <stop offset="63.6%" stop-color="rgb(44, 0, 128)" stop-opacity="0.5"/>
         <stop offset="100%" stop-color="rgb(87, 0, 172)" stop-opacity="0"/>
      </linearGradient>
      <linearGradient x1="-60.772" y1="5.962" x2="76.8" y2="-33.016" id="linearGradient_11" inkscape:label="20=s-d=fsdfkospdf" gradientUnits="userSpaceOnUse">
         <stop offset="3.3000000000000003%" stop-color="rgb(0, 0, 84)" stop-opacity="1"/>
         <stop offset="63.6%" stop-color="rgb(44, 0, 128)" stop-opacity="0.5"/>
         <stop offset="100%" stop-color="rgb(87, 0, 172)" stop-opacity="0"/>
      </linearGradient>
      <linearGradient x1="-0.317" y1="138.292" x2="-0.317" y2="-139.972" id="linearGradient_13" inkscape:label="20-0dfs-df=ssdf" gradientUnits="userSpaceOnUse">
         <stop offset="0%" stop-color="rgb(255, 255, 255)" stop-opacity="0"/>
         <stop offset="36.0%" stop-color="rgb(255, 255, 255)" stop-opacity="0.5"/>
         <stop offset="100%" stop-color="rgb(255, 255, 255)" stop-opacity="1"/>
      </linearGradient>
      <linearGradient x1="-0.813" y1="138.152" x2="-0.813" y2="-138.307" id="linearGradient_15" inkscape:label="20-=safdfsdf" gradientUnits="userSpaceOnUse">
         <stop offset="20.200000000000003%" stop-color="rgb(255, 255, 255)" stop-opacity="0"/>
         <stop offset="49.0%" stop-color="rgb(255, 255, 255)" stop-opacity="0.5"/>
         <stop offset="100%" stop-color="rgb(255, 255, 255)" stop-opacity="1"/>
      </linearGradient>
      <linearGradient x1="-0.081" y1="216.472" x2="-0.081" y2="-216.776" id="linearGradient_17" inkscape:label="20-sdjfiskdf22" gradientUnits="userSpaceOnUse">
         <stop offset="55.00000000000001%" stop-color="rgb(43, 0, 95)" stop-opacity="1"/>
         <stop offset="64.0%" stop-color="rgb(74, 0, 134)" stop-opacity="1"/>
         <stop offset="82.3%" stop-color="rgb(105, 0, 172)" stop-opacity="1"/>
      </linearGradient>
      <linearGradient x1="-0.007" y1="61.288" x2="-0.007" y2="-27.203" id="linearGradient_19" inkscape:label="20psdofjsoid22" gradientUnits="userSpaceOnUse">
         <stop offset="26.900000000000002%" stop-color="rgb(118, 59, 35)" stop-opacity="1"/>
         <stop offset="70.0%" stop-color="rgb(146, 83, 23)" stop-opacity="1"/>
         <stop offset="100%" stop-color="rgb(173, 106, 11)" stop-opacity="1"/>
      </linearGradient>
      <linearGradient x1="-0.007" y1="61.288" x2="-0.007" y2="-27.203" id="linearGradient_21" inkscape:label="20psdofjsoid22" gradientUnits="userSpaceOnUse">
         <stop offset="26.900000000000002%" stop-color="rgb(118, 59, 35)" stop-opacity="1"/>
         <stop offset="70.0%" stop-color="rgb(146, 83, 23)" stop-opacity="1"/>
         <stop offset="100%" stop-color="rgb(173, 106, 11)" stop-opacity="1"/>
      </linearGradient>
      <linearGradient x1="-0.007" y1="59.288" x2="-0.007" y2="-59.588" id="linearGradient_25" inkscape:label="20-1024i1924912io" gradientUnits="userSpaceOnUse">
         <stop offset="48.0%" stop-color="rgb(51, 27, 11)" stop-opacity="1"/>
         <stop offset="72.8%" stop-color="rgb(81, 43, 11)" stop-opacity="1"/>
         <stop offset="100%" stop-color="rgb(111, 59, 11)" stop-opacity="1"/>
      </linearGradient>
      <linearGradient x1="-0.711" y1="-55.925" x2="-0.711" y2="49.849" id="linearGradient_27" inkscape:label="20200-1214421" gradientUnits="userSpaceOnUse">
         <stop offset="22.400000000000002%" stop-color="rgb(255, 223, 0)" stop-opacity="1"/>
         <stop offset="57.3%" stop-color="rgb(247, 182, 0)" stop-opacity="1"/>
         <stop offset="70.7%" stop-color="rgb(239, 141, 0)" stop-opacity="1"/>
      </linearGradient>
      <linearGradient x1="-0.711" y1="-55.925" x2="-0.711" y2="49.849" id="linearGradient_29" inkscape:label="20200-1214421" gradientUnits="userSpaceOnUse">
         <stop offset="22.400000000000002%" stop-color="rgb(255, 223, 0)" stop-opacity="1"/>
         <stop offset="57.3%" stop-color="rgb(247, 182, 0)" stop-opacity="1"/>
         <stop offset="70.7%" stop-color="rgb(239, 141, 0)" stop-opacity="1"/>
      </linearGradient>
      <linearGradient x1="-0.711" y1="17.806" x2="-0.711" y2="-18.386" id="linearGradient_31" inkscape:label="2-4120192414" gradientUnits="userSpaceOnUse">
         <stop offset="20.200000000000003%" stop-color="rgb(255, 255, 255)" stop-opacity="0"/>
         <stop offset="49.0%" stop-color="rgb(255, 255, 255)" stop-opacity="0.5"/>
         <stop offset="100%" stop-color="rgb(255, 255, 255)" stop-opacity="1"/>
      </linearGradient>
      <linearGradient x1="-0.31" y1="-0.125" x2="-0.31" y2="-0.125" id="linearGradient_33" inkscape:label="2-02-109832424" gradientUnits="userSpaceOnUse">
         <stop offset="51.1%" stop-color="rgb(188, 122, 0)" stop-opacity="1"/>
         <stop offset="74.9%" stop-color="rgb(167, 101, 0)" stop-opacity="1"/>
         <stop offset="100%" stop-color="rgb(146, 81, 0)" stop-opacity="1"/>
      </linearGradient>
      <linearGradient x1="-0.71" y1="38.075" x2="-0.71" y2="-21.848" id="linearGradient_34" inkscape:label="2020-10212" gradientUnits="userSpaceOnUse">
         <stop offset="0%" stop-color="rgb(118, 59, 35)" stop-opacity="1"/>
         <stop offset="48.4%" stop-color="rgb(146, 83, 23)" stop-opacity="1"/>
         <stop offset="100%" stop-color="rgb(173, 106, 11)" stop-opacity="1"/>
      </linearGradient>
      <linearGradient x1="-0.71" y1="38.075" x2="-0.71" y2="-21.848" id="linearGradient_36" inkscape:label="2020-10212" gradientUnits="userSpaceOnUse">
         <stop offset="0%" stop-color="rgb(118, 59, 35)" stop-opacity="1"/>
         <stop offset="48.4%" stop-color="rgb(146, 83, 23)" stop-opacity="1"/>
         <stop offset="100%" stop-color="rgb(173, 106, 11)" stop-opacity="1"/>
      </linearGradient>
      <linearGradient x1="-0.71" y1="46.075" x2="-0.71" y2="-47.36" id="linearGradient_39" inkscape:label="20oofg" gradientUnits="userSpaceOnUse">
         <stop offset="28.1%" stop-color="rgb(51, 27, 11)" stop-opacity="1"/>
         <stop offset="54.0%" stop-color="rgb(81, 43, 11)" stop-opacity="1"/>
         <stop offset="82.39999999999999%" stop-color="rgb(111, 59, 11)" stop-opacity="1"/>
      </linearGradient>
      <linearGradient x1="-0.711" y1="81.075" x2="-0.711" y2="-82.531" id="linearGradient_40" inkscape:label="20fdxv" gradientUnits="userSpaceOnUse">
         <stop offset="9.3%" stop-color="rgb(135, 62, 0)" stop-opacity="1"/>
         <stop offset="42.6%" stop-color="rgb(173, 92, 0)" stop-opacity="1"/>
         <stop offset="67.9%" stop-color="rgb(211, 122, 0)" stop-opacity="1"/>
      </linearGradient>
      <linearGradient x1="1.425" y1="245.439" x2="0.425" y2="-234.167" id="linearGradient_42" inkscape:label="200dsdfsdfsdf" gradientUnits="userSpaceOnUse">
         <stop offset="14.499999999999998%" stop-color="rgb(171, 55, 255)" stop-opacity="1"/>
         <stop offset="74.9%" stop-color="rgb(117, 28, 210)" stop-opacity="1"/>
         <stop offset="100%" stop-color="rgb(62, 0, 166)" stop-opacity="1"/>
      </linearGradient>
      <linearGradient x1="1.44" y1="241.729" x2="0.44" y2="-177.558" id="linearGradient_46" inkscape:label="20xxxzxczxczc" gradientUnits="userSpaceOnUse">
         <stop offset="0%" stop-color="rgb(255, 255, 255)" stop-opacity="1"/>
         <stop offset="51.0%" stop-color="rgb(255, 255, 255)" stop-opacity="0.5"/>
         <stop offset="79.80000000000001%" stop-color="rgb(255, 255, 255)" stop-opacity="0"/>
      </linearGradient>
      <linearGradient x1="-80.399" y1="-189.416" x2="54.525" y2="59.723" id="linearGradient_48" inkscape:label="20xccxcxcxcx" gradientUnits="userSpaceOnUse">
         <stop offset="0%" stop-color="rgb(0, 0, 84)" stop-opacity="1"/>
         <stop offset="58.199999999999996%" stop-color="rgb(44, 0, 128)" stop-opacity="0.5"/>
         <stop offset="100%" stop-color="rgb(87, 0, 172)" stop-opacity="0"/>
      </linearGradient>
      <linearGradient x1="-80.399" y1="-189.416" x2="54.525" y2="59.723" id="linearGradient_50" inkscape:label="20xccxcxcxcx" gradientUnits="userSpaceOnUse">
         <stop offset="0%" stop-color="rgb(0, 0, 84)" stop-opacity="1"/>
         <stop offset="58.199999999999996%" stop-color="rgb(44, 0, 128)" stop-opacity="0.5"/>
         <stop offset="100%" stop-color="rgb(87, 0, 172)" stop-opacity="0"/>
      </linearGradient>
      <linearGradient x1="6.152" y1="-218.816" x2="3.287" y2="203.903" id="linearGradient_52" inkscape:label="20sdfzxzxzxzxcvv" gradientUnits="userSpaceOnUse">
         <stop offset="0%" stop-color="rgb(0, 0, 84)" stop-opacity="1"/>
         <stop offset="58.199999999999996%" stop-color="rgb(44, 0, 128)" stop-opacity="0.5"/>
         <stop offset="100%" stop-color="rgb(87, 0, 172)" stop-opacity="0"/>
      </linearGradient>
      <linearGradient x1="6.152" y1="-218.816" x2="3.287" y2="203.903" id="linearGradient_54" inkscape:label="20sdfzxzxzxzxcvv" gradientUnits="userSpaceOnUse">
         <stop offset="0%" stop-color="rgb(0, 0, 84)" stop-opacity="1"/>
         <stop offset="58.199999999999996%" stop-color="rgb(44, 0, 128)" stop-opacity="0.5"/>
         <stop offset="100%" stop-color="rgb(87, 0, 172)" stop-opacity="0"/>
      </linearGradient>
      <linearGradient x1="1.425" y1="251.439" x2="0.425" y2="-242.917" id="linearGradient_57" inkscape:label="20]sd]f[sd[f][xxxx" gradientUnits="userSpaceOnUse">
         <stop offset="17.7%" stop-color="rgb(105, 0, 172)" stop-opacity="1"/>
         <stop offset="51.6%" stop-color="rgb(74, 0, 134)" stop-opacity="1"/>
         <stop offset="65.8%" stop-color="rgb(43, 0, 95)" stop-opacity="1"/>
      </linearGradient>
   </defs>
   <sodipodi:namedview inkscape:pagecheckerboard="true" borderlayer="true" bordercolor="#666666" pagecolor="#ffffff"/>
   <g inkscape:groupmode="layer" id="mast" inkscape:label="mast" transform="matrix(1.0, 0.0, 0.0, 1.0, 256.0, 247.0)" opacity="1">
      <g inkscape:groupmode="layer" id="shade" inkscape:label="shade" transform="matrix(1.37483, 0.0, 0.0, 0.48119, 23.37211, 180.38204)" opacity="0.65" style="">
         <g id="Ellipse_1" inkscape:label="Ellipse 1" transform="matrix(1.0, 0.0, 0.0, 1.0, -17.0, -16.0)" style="fill-opacity:1.0;fill:url(#radialGradient_2);fill-rule:nonzero">
            <ellipse rx="184.0" ry="184.0" cx="0" cy="0" id="Ellipse_Path_1" inkscape:label="Ellipse Path 1" style="fill-opacity:1.0;fill:url(#radialGradient_3);fill-rule:nonzero"/>
         </g>
      </g>
      <g inkscape:groupmode="layer" id="hatrot1" inkscape:label="hatrot1" transform="matrix(1.0, 0.0, 0.0, 1.0, 138.0, 136.0)" opacity="1">
         <g inkscape:groupmode="layer" id="top" inkscape:label="top" transform="matrix(1.0, 0.0, 0.0, 1.0, -394.0, -392.0)" style="">
            <g id="fill" inkscape:label="fill" transform="matrix(1.0, 0.0, 0.0, 1.0, 257.081, 232.528)" style="fill-opacity:1.0;fill:url(#linearGradient_4);fill-rule:nonzero">
               <path d="M 78.154,-149.321 C 78.154,-131.561 118.335,-70.012 113.952,-43.761 C 111.259,-27.558000000000003 77.19600000000001,25.431999999999995 81.915,40.471 C 85.48,51.830999999999996 127.28500000000001,115.436 140.246,151.744 C 140.702,153.02 140.572,154.432 140.735,155.789 C 140.735,182.88099999999997 77.696,207.624 -0.063,207.624 C -77.836,207.624 -140.862,182.88099999999997 -140.862,155.789 C -141.906,95.81699999999998 -103.066,7.068 -96.851,2.291 C -84.581,-7.138999999999999 -10.38,-57.934999999999995 -10.38,-66.689 C -10.38,-75.443 0.46499999999999986,-172.965 22.547,-185.87 C 46.111000000000004,-199.64100000000002 136.488,-213.582 140.786,-204.971 C 143.744,-199.043 78.154,-167.081 78.154,-149.321 Z" id="Path_1" inkscape:label="Path 1" style="fill-opacity:1.0;fill:url(#linearGradient_5);fill-rule:nonzero"/>
            </g>
            <g id="shade2" inkscape:label="shade2" transform="matrix(1.0, 0.0, 0.0, 1.0, 257.008, 320.554)" opacity="0.3" style="fill-opacity:1.0;fill:url(#linearGradient_6);fill-rule:nonzero">
               <path d="M 140.81,67.763 C 140.81,67.763 140.776,68.83 140.776,68.83 C 140.776,68.83 115.955,96.508 115.955,96.508 C 90.556,110.136 48.092000000000006,119.596 0.005,119.596 C -77.762,119.596 -140.789,94.852 -140.789,67.763 C -141.83399999999997,7.793000000000006 -102.996,-80.957 -96.782,-85.737 C -92.80199999999999,-88.794 -66.063,-96.186 -53.713,-105.101 C -172.88,-33.104 -31.697000000000003,0.0 109.799,-119.596 C 105.98700000000001,-110.025 80.54,-52.156000000000006 81.985,-47.554 C 85.553,-36.193 127.36,27.411 140.321,63.716 C 140.776,64.994 140.643,66.40700000000001 140.81,67.763 Z" id="path_7" inkscape:label="Path 1" style="fill-opacity:1.0;fill:url(#linearGradient_8);fill-rule:nonzero"/>
            </g>
            <g id="shade1" inkscape:label="shade1" transform="matrix(1.0, 0.0, 0.0, 1.0, 248.772, 185.038)" opacity="0.5" style="fill-opacity:1.0;fill:url(#linearGradient_9);fill-rule:nonzero">
               <path d="M 1.939,-53.618 C -4.585,-24.313000000000002 72.512,-34.769 76.752,-28.375 C 86.64699999999999,-13.456 -7.966999999999999,-2.006999999999998 -77.469,53.618 C -77.469,53.618 -2.071,-19.199 -2.071,-19.199 C -2.071,-19.199 1.939,-53.618 1.939,-53.618 Z" id="path_10" inkscape:label="Path 1" style="fill-opacity:1.0;fill:url(#linearGradient_11);fill-rule:nonzero"/>
            </g>
            <g id="l2" inkscape:label="l2" transform="matrix(1.0, 0.0, 0.0, 1.0, 255.317, 168.708)" opacity="0.3" style="stroke:url(#linearGradient_13);stroke-opacity:1.0;stroke-width:18.0;stroke-miterlimit:0;stroke-linecap:round;stroke-linejoin:round">
               <path d="M -122.465,130.132 C -122.465,130.132 -91.636,72.488 -84.015,69.948 C -76.394,67.40799999999999 1.846,11.956 3.878,5.881 C 5.91,-0.19399999999999995 16.685000000000002,-97.213 30.805,-107.901 C 47.195,-120.307 122.465,-130.132 122.465,-130.132 " id="path_12" inkscape:label="Path 1" style=""/>
            </g>
            <g id="l1" inkscape:label="l1" transform="matrix(1.0, 0.0, 0.0, 1.0, 344.813, 224.848)" opacity="0.2" style="stroke:url(#linearGradient_15);stroke-opacity:1.0;stroke-width:18.0;stroke-miterlimit:0;stroke-linecap:round;stroke-linejoin:round">
               <path d="M 23.53,129.229 C 23.53,129.229 -21.492,61.212 -23.452,45.366 C -25.412000000000003,29.52 10.409,-25.155 14.515,-47.923 C 16.834,-60.782000000000004 -6.529,-129.229 -6.529,-129.229 " id="path_14" inkscape:label="Path 1" style=""/>
            </g>
            <g id="outline" inkscape:label="outline" transform="matrix(1.0, 0.0, 0.0, 1.0, 257.081, 232.528)" style="stroke:url(#linearGradient_17);stroke-opacity:1.0;stroke-width:18.0;stroke-miterlimit:0;stroke-linecap:round;stroke-linejoin:round">
               <path d="M 78.154,-149.321 C 78.154,-131.561 118.335,-70.012 113.952,-43.761 C 111.259,-27.558000000000003 77.19600000000001,25.431999999999995 81.915,40.471 C 85.48,51.830999999999996 127.28500000000001,115.436 140.246,151.744 C 140.702,153.02 140.572,154.432 140.735,155.789 C 140.735,182.88099999999997 77.696,207.624 -0.063,207.624 C -77.836,207.624 -140.862,182.88099999999997 -140.862,155.789 C -141.906,95.81699999999998 -103.066,7.068 -96.851,2.291 C -84.581,-7.138999999999999 -10.38,-57.934999999999995 -10.38,-66.689 C -10.38,-75.443 0.46499999999999986,-172.965 22.547,-185.87 C 46.111000000000004,-199.64100000000002 136.488,-213.582 140.786,-204.971 C 143.744,-199.043 78.154,-167.081 78.154,-149.321 Z" id="path_16" inkscape:label="Path 1" style=""/>
            </g>
            <g id="ring" inkscape:label="ring" transform="matrix(1.0, 0.0, 0.0, 1.0, 0.0, 0.0)" style="">
               <g id="g_18" inkscape:label="fill" transform="matrix(1.0, 0.0, 0.0, 1.0, 257.007, 389.712)" style="fill-opacity:1.0;fill:url(#linearGradient_19);fill-rule:nonzero">
                  <path d="M 140.81,-1.395 C 140.81,25.694 77.77199999999999,50.438 0.005,50.438 C -77.762,50.438 -140.789,25.694 -140.789,-1.395 C -141.05599999999998,-16.513 -138.777,-33.464 -135.131,-50.438 C -135.131,-50.438 -4.073999999999998,15.100000000000001 119.824,-48.649 C 128.227,-33.176 135.93,-17.735 140.321,-5.441 C 140.776,-4.163 140.643,-2.7510000000000003 140.81,-1.395 Z" id="path_20" inkscape:label="Path 1" style="fill-opacity:1.0;fill:url(#linearGradient_21);fill-rule:nonzero"/>
               </g>
               <g id="g_22" inkscape:label="shade" transform="matrix(1.0, 0.0, 0.0, 1.0, 257.007, 403.44)" opacity="0.2" style="fill-opacity:1.0;fill:rgb(51, 27, 11);fill-rule:nonzero">
                  <path d="M 140.811,-15.12 C 140.811,11.97 77.771,36.71 0.001,36.71 C -77.759,36.71 -140.789,11.97 -140.789,-15.12 C -140.94899999999998,-23.82 -140.259,-27.14 -138.939,-36.71 C -128.009,-12.96 -69.969,7.08 0.001,7.08 C 62.300999999999995,7.08 115.14100000000002,-8.8 133.711,-29.05 C 136.33100000000002,-23.39 138.592,-24.040000000000003 140.322,-19.17 C 140.782,-17.89 140.64100000000002,-16.48 140.811,-15.12 Z" id="path_23" inkscape:label="Path 1" style="fill-opacity:1.0;fill:rgb(51, 27, 11);fill-rule:nonzero"/>
               </g>
               <g id="outl" inkscape:label="outl" transform="matrix(1.0, 0.0, 0.0, 1.0, 257.007, 389.712)" style="stroke:url(#linearGradient_25);stroke-opacity:1.0;stroke-width:18.0;stroke-miterlimit:0;stroke-linecap:round;stroke-linejoin:round">
                  <path d="M 140.81,-1.395 C 140.81,25.694 77.77199999999999,50.438 0.005,50.438 C -77.762,50.438 -140.789,25.694 -140.789,-1.395 C -141.05599999999998,-16.513 -138.777,-33.464 -135.131,-50.438 C -135.131,-50.438 -4.073999999999998,15.100000000000001 119.824,-48.649 C 128.227,-33.176 135.93,-17.735 140.321,-5.441 C 140.776,-4.163 140.643,-2.7510000000000003 140.81,-1.395 Z" id="path_24" inkscape:label="Path 1" style=""/>
               </g>
               <g id="overshade" inkscape:label="overshade" transform="matrix(1.0, 0.0, 0.0, 1.0, 257.007, 389.712)" opacity="0.5" style="stroke:rgb(51, 27, 11);stroke-opacity:1.0;stroke-width:18.0;stroke-miterlimit:0;stroke-linecap:round;stroke-linejoin:round">
                  <path d="M 119.824,-48.649 C 128.227,-33.176 135.93,-17.735 140.321,-5.441 C 140.776,-4.163 140.643,-2.7510000000000003 140.81,-1.395 C 140.81,25.694 77.77199999999999,50.438 0.005,50.438 C -77.762,50.438 -140.789,25.694 -140.789,-1.395 C -141.05599999999998,-16.513 -138.777,-33.464 -135.131,-50.438 " id="path_26" inkscape:label="Path 1" style=""/>
               </g>
            </g>
            <g inkscape:groupmode="layer" id="frontflip" inkscape:label="frontflip" transform="matrix(1.0, 0.0, 0.0, 1.0, 253.0, 394.0)" opacity="1">
               <g inkscape:groupmode="layer" id="front" inkscape:label="front" transform="matrix(1.0, 0.0, 0.0, 1.0, -253.0, -394.0)" style="">
                  <g id="Group_7" inkscape:label="Group 7" transform="matrix(1.0, 0.0, 0.0, 1.0, 250.711, 398.925)" style="fill-opacity:1.0;fill:url(#linearGradient_27);fill-rule:nonzero">
                     <path d="M 36.996,31.663 C 36.996,35.007 34.645,37.718 31.745,37.718 C 31.745,37.718 -31.746,37.718 -31.746,37.718 C -34.646,37.718 -36.996,35.007 -36.996,31.663 C -36.996,31.663 -36.996,-31.663 -36.996,-31.663 C -36.996,-35.007 -34.646,-37.718 -31.746,-37.718 C -31.746,-37.718 31.745,-37.718 31.745,-37.718 C 34.645,-37.718 36.996,-35.007 36.996,-31.663 C 36.996,-31.663 36.996,31.663 36.996,31.663 Z&#10;M 53.553,-72.803 C 53.553,-72.803 -53.553,-72.803 -53.553,-72.803 C -63.416,-72.803 -71.411,-63.583 -71.411,-52.21 C -71.411,-52.21 -71.411,52.21 -71.411,52.21 C -71.411,63.583 -63.416,72.803 -53.553,72.803 C -53.553,72.803 53.553,72.803 53.553,72.803 C 63.415,72.803 71.411,63.583 71.411,52.21 C 71.411,52.21 71.411,-52.21 71.411,-52.21 C 71.411,-63.583 63.415,-72.803 53.553,-72.803 Z" id="path_28" inkscape:label="Path 1" style="fill-opacity:1.0;fill:url(#linearGradient_29);fill-rule:nonzero"/>
                  </g>
                  <g id="Group_6" inkscape:label="Group 6" transform="matrix(1.0, 0.0, 0.0, 1.0, 250.711, 352.194)" opacity="0.9" style="stroke:url(#linearGradient_31);stroke-opacity:1.0;stroke-width:18.0;stroke-miterlimit:0;stroke-linecap:round;stroke-linejoin:round">
                     <path d="M 71.411,9.096 C 71.411,-0.9510000000000005 63.415,-9.096 53.553,-9.096 C 53.553,-9.096 -53.553,-9.096 -53.553,-9.096 C -63.416,-9.096 -71.411,-0.9510000000000005 -71.411,9.096 " id="path_30" inkscape:label="Path 1" style=""/>
                  </g>
                  <g id="Group_4" inkscape:label="Group 4" transform="matrix(1.0, 0.0, 0.0, 1.0, 225.31, 403.125)" style="stroke:url(#linearGradient_33);stroke-opacity:1.0;stroke-width:18.0;stroke-miterlimit:0;stroke-linecap:round;stroke-linejoin:round">
                     <path d="M 0,0 " id="path_32" inkscape:label="Path 1" style=""/>
                  </g>
                  <g id="Group_3" inkscape:label="Group 3" transform="matrix(1.0, 0.0, 0.0, 1.0, 250.71, 398.925)" style="fill-opacity:1.0;fill:url(#linearGradient_34);fill-rule:nonzero">
                     <path d="M 36.996,31.663 C 36.996,35.007 34.646,37.718 31.746,37.718 C 31.746,37.718 -31.746,37.718 -31.746,37.718 C -34.646,37.718 -36.996,35.007 -36.996,31.663 C -36.996,31.663 -36.996,-31.663 -36.996,-31.663 C -36.996,-35.007 -34.646,-37.718 -31.746,-37.718 C -31.746,-37.718 31.746,-37.718 31.746,-37.718 C 34.646,-37.718 36.996,-35.007 36.996,-31.663 C 36.996,-31.663 36.996,31.663 36.996,31.663 Z" id="path_35" inkscape:label="Path 1" style="fill-opacity:1.0;fill:url(#linearGradient_36);fill-rule:nonzero"/>
                  </g>
                  <g id="Group_2" inkscape:label="Group 2" transform="matrix(1.0, 0.0, 0.0, 1.0, 250.713, 417.515)" opacity="0.2" style="fill-opacity:1.0;fill:rgb(51, 27, 11);fill-rule:nonzero">
                     <path d="M 36.995,-19.125 C 36.995,-19.125 36.995,13.075 36.995,13.075 C 36.995,16.415 34.645,19.125 31.745,19.125 C 31.745,19.125 -31.745,19.125 -31.745,19.125 C -34.645,19.125 -36.995,16.415 -36.995,13.075 C -36.995,13.075 -36.995,-19.125 -36.995,-19.125 C -36.995,-15.775 -34.645,-13.065 -31.745,-13.065 C -31.745,-13.065 31.745,-13.065 31.745,-13.065 C 34.645,-13.065 36.995,-15.775 36.995,-19.125 Z" id="path_37" inkscape:label="Path 1" style="fill-opacity:1.0;fill:rgb(51, 27, 11);fill-rule:nonzero"/>
                  </g>
                  <g id="Group_1" inkscape:label="Group 1" transform="matrix(1.0, 0.0, 0.0, 1.0, 250.71, 398.925)" style="stroke:url(#linearGradient_39);stroke-opacity:1.0;stroke-width:18.0;stroke-miterlimit:0;stroke-linecap:round;stroke-linejoin:round">
                     <path d="M 36.996,31.663 C 36.996,35.007 34.646,37.718 31.746,37.718 C 31.746,37.718 -31.746,37.718 -31.746,37.718 C -34.646,37.718 -36.996,35.007 -36.996,31.663 C -36.996,31.663 -36.996,-31.663 -36.996,-31.663 C -36.996,-35.007 -34.646,-37.718 -31.746,-37.718 C -31.746,-37.718 31.746,-37.718 31.746,-37.718 C 34.646,-37.718 36.996,-35.007 36.996,-31.663 C 36.996,-31.663 36.996,31.663 36.996,31.663 Z" id="path_38" inkscape:label="Path 1" style=""/>
                  </g>
                  <g id="Group_5" inkscape:label="Group 5" transform="matrix(1.0, 0.0, 0.0, 1.0, 250.711, 398.925)" style="stroke:url(#linearGradient_40);stroke-opacity:1.0;stroke-width:18.0;stroke-miterlimit:0;stroke-linecap:round;stroke-linejoin:round">
                     <path d="M 50.114,-72.803 C 50.114,-72.803 -50.114,-72.803 -50.114,-72.803 C -61.876,-72.803 -71.411,-61.808 -71.411,-48.244 C -71.411,-48.244 -71.411,48.244 -71.411,48.244 C -71.411,61.808 -61.876,72.803 -50.114,72.803 C -50.114,72.803 50.114,72.803 50.114,72.803 C 61.876,72.803 71.411,61.808 71.411,48.244 C 71.411,48.244 71.411,-48.244 71.411,-48.244 C 71.411,-61.808 61.876,-72.803 50.114,-72.803 Z" id="Path_2" inkscape:label="Path 2" style=""/>
                  </g>
               </g>
            </g>
         </g>
         <g inkscape:groupmode="layer" id="perspectve" inkscape:label="perspectve" transform="matrix(1.0, 0.0, 0.0, 0.35, -139.0, 26.0)" opacity="1">
            <g inkscape:groupmode="layer" id="rotation" inkscape:label="rotation" transform="matrix(1.0, 0.0, 0.0, 1.0, 0.0, 0.0)" opacity="1">
               <g inkscape:groupmode="layer" id="bottom-2" inkscape:label="bottom-2" transform="matrix(1.0, 0.0, 0.0, 1.0, -256.563, -426.75)" style="">
                  <g id="g_41" inkscape:label="fill" transform="matrix(1.0, 0.0, 0.0, 1.0, 256.575, 420.704)" style="fill-opacity:1.0;fill:url(#linearGradient_42);fill-rule:nonzero">
                     <g id="g_43" inkscape:label="Group 1" transform="matrix(1.0, 0.0, 0.0, 1.0, -256.563, -420.75)" style="">
                        <path d="M 496.15,416.249 C 496.15,469.379 478.589,517.731 448.913,559.928 C 448.913,559.928 415.185,526.891 388.467,512.713 C 388.467,512.713 407.553,606.005 407.553,606.005 C 366.349,642.078 313.806,664.5 256.575,664.5 C 215.16,664.5 176.19799999999998,653.043 142.213,633.273 C 67.62299999999999,589.883 17,506.45500000000004 17,416.249 C 17,284.943 124.262,189 256.575,189 C 388.888,189 496.15,284.943 496.15,416.249 Z" id="path_44" inkscape:label="Path 1" style=""/>
                     </g>
                  </g>
                  <g id="lights" inkscape:label="lights" transform="matrix(1.0, 0.0, 0.0, 1.0, 0.0, 0.0)" style="">
                     <g id="g_45" inkscape:label="Group 4" transform="matrix(1.0, 0.0, 0.0, 1.0, 214.56, 423.843)" opacity="0.2" style="stroke:url(#linearGradient_46);stroke-opacity:1.0;stroke-width:18.0;stroke-miterlimit:0;stroke-linecap:round;stroke-linejoin:round">
                        <path d="M 222.02023700868057,126.75004047511574 C 222.02023700868057,126.75004047511574 221.33,127.736 221.33,127.736 C 221.33,127.736 183.31,170.076 183.31,170.076 C 144.851,203.745 95.80799999999999,224.674 42.39,224.674 C 2.2319999999999993,224.674 -35.452,213.133 -68.027,193.342 C -135.63,152.27 -181.222,75.66799999999999 -181.222,-7.037 C -181.222,-129.594 -81.108,-219.145 42.39,-219.145 C 165.888,-219.145 266.003,-7.037 266.003,-7.037 &#10;M 266.003,-7.037 C 266.003,24.783249999999967 259.01419125,55.042196666666605 246.68754291493062,83.04737877719897 " style=""/>
                     </g>
                     <g id="g_47" inkscape:label="Group 5" transform="matrix(1.0, 0.0, 0.0, 1.0, 414.399, 390.416)" opacity="0.5" style="fill-opacity:1.0;fill:url(#linearGradient_48);fill-rule:nonzero">
                        <path d="M 81.749,25.839 C 81.749,50.319 78.02099999999999,73.81299999999999 71.085,96.118 C 66.243,22.997 0.7729999999999961,-40.832 -61.624,5.31 C -61.624,5.31 -88.529,-192.247 -88.529,-192.247 C 9.99300000000001,-165.30200000000002 81.749,-81.566 81.749,25.839 Z&#10;M -182.249,-19.934 C -182.249,-19.934 -182.133,-19.92 -182.133,-19.92 C -182.133,-19.92 -181.837,-20.459 -181.837,-20.459 C -181.837,-20.459 -182.537,-20.17 -182.537,-20.17 C -182.537,-20.17 -182.249,-19.934 -182.249,-19.934 Z" id="path_49" inkscape:label="Path 1" style="fill-opacity:1.0;fill:url(#linearGradient_50);fill-rule:nonzero"/>
                     </g>
                     <g id="g_51" inkscape:label="Group 2" transform="matrix(1.0, 0.0, 0.0, 1.0, 106.848, 416.959)" opacity="0.5" style="fill-opacity:1.0;fill:url(#linearGradient_52);fill-rule:nonzero">
                        <path d="M 39.731,218.776 C -37.24,176.168 -89.847,91.24199999999999 -89.847,-0.703 C -89.847,-109.906 -15.667999999999992,-194.629 85.411,-220.066 C 85.411,-220.066 96.279,-205.419 96.279,-205.419 C 96.279,-205.419 40.566,-1.892 40.566,-1.892 C 26.300000000000004,-1.964 13.33,5.099 3.51,17.338 C -27.191000000000003,53.259 -30.991999999999997,137.221 39.731,218.776 Z&#10;M 125.302,-46.477 C 125.302,-46.477 125.418,-46.462 125.418,-46.462 C 125.418,-46.462 125.715,-47.001 125.715,-47.001 C 125.715,-47.001 125.014,-46.713 125.014,-46.713 C 125.014,-46.713 125.302,-46.477 125.302,-46.477 Z" id="path_53" inkscape:label="Path 1" style="fill-opacity:1.0;fill:url(#linearGradient_54);fill-rule:nonzero"/>
                     </g>
                  </g>
                  <g id="out" inkscape:label="out" transform="matrix(1.0, 0.0, 0.0, 1.0, 256.575, 420.704)" style="stroke:url(#linearGradient_57);stroke-opacity:1.0;stroke-width:18.0;stroke-miterlimit:0;stroke-linecap:round;stroke-linejoin:round">
                     <g id="g_55" inkscape:label="Group 1" transform="matrix(1.0, 0.0, 0.0, 1.0, -256.5, -420.5)" style="">
                        <path d="M 496.15,416.249 C 496.15,469.379 478.589,517.731 448.913,559.928 C 448.913,559.928 415.185,526.891 388.467,512.713 C 388.467,512.713 407.553,606.005 407.553,606.005 C 366.349,642.078 313.806,664.5 256.575,664.5 C 215.463,664.5 176.769,653.2090000000001 142.961,633.706 C 67.96100000000001,590.44 17,506.75600000000003 17,416.249 C 17,284.943 124.262,189 256.575,189 C 388.888,189 496.15,284.943 496.15,416.249 Z" id="path_56" inkscape:label="Path 1" style=""/>
                     </g>
                  </g>
               </g>
            </g>
         </g>
      </g>
   </g>
</svg>
