<?xml version="1.0" ?>
<svg xmlns:inkscape="http://www.inkscape.org/namespaces/inkscape" xmlns:sodipodi="http://sodipodi.sourceforge.net/DTD/sodipodi-0.dtd" xmlns="http://www.w3.org/2000/svg" width="512" height="512" viewBox="0 0 512 512" version="1.1" id="Cap_5" sodipodi:docname="Cap 5" inkscape:export-xdpi="96" inkscape:export-ydpi="96" style="fill: none; stroke: none">
   <defs>
      <linearGradient x1="0.284" y1="1.818" x2="0.352" y2="-9.303" id="Gradient_i5ucocIjId" inkscape:label="Gradient_i5ucocIjId" gradientUnits="userSpaceOnUse">
         <stop offset="21.4%" stop-color="rgb(62, 59, 71)" stop-opacity="1"/>
         <stop offset="60.5%" stop-color="rgb(116, 114, 127)" stop-opacity="1"/>
         <stop offset="83.1%" stop-color="rgb(169, 169, 183)" stop-opacity="1"/>
      </linearGradient>
      <linearGradient x1="0.284" y1="1.818" x2="0.352" y2="-9.303" id="linearGradient_1" inkscape:label="Gradient_i5ucocIjId" gradientUnits="userSpaceOnUse">
         <stop offset="21.4%" stop-color="rgb(62, 59, 71)" stop-opacity="1"/>
         <stop offset="60.5%" stop-color="rgb(116, 114, 127)" stop-opacity="1"/>
         <stop offset="83.1%" stop-color="rgb(169, 169, 183)" stop-opacity="1"/>
      </linearGradient>
      <linearGradient x1="-18.617" y1="-42.356" x2="23.514" y2="106.017" id="Gradient_4hrSABwieU" inkscape:label="Gradient_4hrSABwieU" gradientUnits="userSpaceOnUse">
         <stop offset="0%" stop-color="rgb(48, 46, 58)" stop-opacity="1"/>
         <stop offset="63.3%" stop-color="rgb(35, 33, 44)" stop-opacity="1"/>
         <stop offset="100%" stop-color="rgb(22, 21, 30)" stop-opacity="1"/>
      </linearGradient>
      <linearGradient x1="-18.617" y1="-42.356" x2="23.514" y2="106.017" id="linearGradient_3" inkscape:label="Gradient_4hrSABwieU" gradientUnits="userSpaceOnUse">
         <stop offset="0%" stop-color="rgb(48, 46, 58)" stop-opacity="1"/>
         <stop offset="63.3%" stop-color="rgb(35, 33, 44)" stop-opacity="1"/>
         <stop offset="100%" stop-color="rgb(22, 21, 30)" stop-opacity="1"/>
      </linearGradient>
      <linearGradient x1="-22.881" y1="-95.983" x2="-25.32" y2="105.556" id="Gradient_BVjFOKHOYF" inkscape:label="Gradient_BVjFOKHOYF" gradientUnits="userSpaceOnUse">
         <stop offset="0%" stop-color="rgb(86, 84, 104)" stop-opacity="1"/>
         <stop offset="53.400000000000006%" stop-color="rgb(68, 66, 82)" stop-opacity="1"/>
         <stop offset="88.9%" stop-color="rgb(49, 47, 61)" stop-opacity="1"/>
      </linearGradient>
      <linearGradient x1="-22.881" y1="-95.983" x2="-25.32" y2="105.556" id="linearGradient_5" inkscape:label="Gradient_BVjFOKHOYF" gradientUnits="userSpaceOnUse">
         <stop offset="0%" stop-color="rgb(86, 84, 104)" stop-opacity="1"/>
         <stop offset="53.400000000000006%" stop-color="rgb(68, 66, 82)" stop-opacity="1"/>
         <stop offset="88.9%" stop-color="rgb(49, 47, 61)" stop-opacity="1"/>
      </linearGradient>
      <linearGradient x1="-81.015" y1="-60.409" x2="81.72" y2="58.631" id="Gradient_kHE8n3SUKU" inkscape:label="Gradient_kHE8n3SUKU" gradientUnits="userSpaceOnUse">
         <stop offset="0%" stop-color="rgb(94, 92, 107)" stop-opacity="1"/>
         <stop offset="60.099999999999994%" stop-color="rgb(64, 62, 75)" stop-opacity="1"/>
         <stop offset="100%" stop-color="rgb(34, 33, 43)" stop-opacity="1"/>
      </linearGradient>
      <linearGradient x1="-81.015" y1="-60.409" x2="81.72" y2="58.631" id="linearGradient_8" inkscape:label="Gradient_kHE8n3SUKU" gradientUnits="userSpaceOnUse">
         <stop offset="0%" stop-color="rgb(94, 92, 107)" stop-opacity="1"/>
         <stop offset="60.099999999999994%" stop-color="rgb(64, 62, 75)" stop-opacity="1"/>
         <stop offset="100%" stop-color="rgb(34, 33, 43)" stop-opacity="1"/>
      </linearGradient>
      <linearGradient x1="-1.722" y1="-31.819" x2="17.432" y2="-106.556" id="Gradient_6IVESrG3z7" inkscape:label="Gradient_6IVESrG3z7" gradientUnits="userSpaceOnUse">
         <stop offset="0%" stop-color="rgb(88, 86, 104)" stop-opacity="0"/>
         <stop offset="46.0%" stop-color="rgb(88, 86, 104)" stop-opacity="0.5"/>
         <stop offset="76.5%" stop-color="rgb(88, 86, 104)" stop-opacity="1"/>
      </linearGradient>
      <linearGradient x1="-1.722" y1="-31.819" x2="17.432" y2="-106.556" id="linearGradient_10" inkscape:label="Gradient_6IVESrG3z7" gradientUnits="userSpaceOnUse">
         <stop offset="0%" stop-color="rgb(88, 86, 104)" stop-opacity="0"/>
         <stop offset="46.0%" stop-color="rgb(88, 86, 104)" stop-opacity="0.5"/>
         <stop offset="76.5%" stop-color="rgb(88, 86, 104)" stop-opacity="1"/>
      </linearGradient>
      <linearGradient x1="-38.983" y1="-14.065" x2="26.799" y2="9.755" id="Gradient_T4j4e1yiue" inkscape:label="Gradient_T4j4e1yiue" gradientUnits="userSpaceOnUse">
         <stop offset="0%" stop-color="rgb(129, 129, 150)" stop-opacity="1"/>
         <stop offset="60.099999999999994%" stop-color="rgb(114, 114, 134)" stop-opacity="0.5"/>
         <stop offset="100%" stop-color="rgb(100, 99, 117)" stop-opacity="0"/>
      </linearGradient>
      <linearGradient x1="-38.983" y1="-14.065" x2="26.799" y2="9.755" id="linearGradient_13" inkscape:label="Gradient_T4j4e1yiue" gradientUnits="userSpaceOnUse">
         <stop offset="0%" stop-color="rgb(129, 129, 150)" stop-opacity="1"/>
         <stop offset="60.099999999999994%" stop-color="rgb(114, 114, 134)" stop-opacity="0.5"/>
         <stop offset="100%" stop-color="rgb(100, 99, 117)" stop-opacity="0"/>
      </linearGradient>
      <linearGradient x1="90.75" y1="-86.75" x2="112.625" y2="-83" id="Gradient_fF8agqzLKB" inkscape:label="Gradient_fF8agqzLKB" gradientUnits="userSpaceOnUse">
         <stop offset="0%" stop-color="rgb(72, 70, 91)" stop-opacity="1"/>
         <stop offset="50.0%" stop-color="rgb(43, 41, 58)" stop-opacity="1"/>
         <stop offset="100%" stop-color="rgb(14, 11, 25)" stop-opacity="1"/>
      </linearGradient>
      <linearGradient x1="-1.959" y1="-24.653" x2="29.692" y2="19.393" id="Gradient_jQQ7QssNco" inkscape:label="Gradient_jQQ7QssNco" gradientUnits="userSpaceOnUse">
         <stop offset="0%" stop-color="rgb(255, 255, 255)" stop-opacity="1"/>
         <stop offset="42.1%" stop-color="rgb(231, 230, 238)" stop-opacity="1"/>
         <stop offset="90.9%" stop-color="rgb(207, 204, 221)" stop-opacity="1"/>
      </linearGradient>
      <linearGradient x1="-1.959" y1="-24.653" x2="29.692" y2="19.393" id="linearGradient_22" inkscape:label="Gradient_jQQ7QssNco" gradientUnits="userSpaceOnUse">
         <stop offset="0%" stop-color="rgb(255, 255, 255)" stop-opacity="1"/>
         <stop offset="42.1%" stop-color="rgb(231, 230, 238)" stop-opacity="1"/>
         <stop offset="90.9%" stop-color="rgb(207, 204, 221)" stop-opacity="1"/>
      </linearGradient>
      <linearGradient x1="4.193" y1="6.469" x2="-14.025" y2="-25.763" id="Gradient_Q8QP4W5Xjb" inkscape:label="Gradient_Q8QP4W5Xjb" gradientUnits="userSpaceOnUse">
         <stop offset="31.2%" stop-color="rgb(39, 38, 48)" stop-opacity="1"/>
         <stop offset="65.60000000000001%" stop-color="rgb(30, 28, 39)" stop-opacity="1"/>
         <stop offset="100%" stop-color="rgb(20, 17, 30)" stop-opacity="1"/>
      </linearGradient>
      <linearGradient x1="4.193" y1="6.469" x2="-14.025" y2="-25.763" id="linearGradient_25" inkscape:label="Gradient_Q8QP4W5Xjb" gradientUnits="userSpaceOnUse">
         <stop offset="31.2%" stop-color="rgb(39, 38, 48)" stop-opacity="1"/>
         <stop offset="65.60000000000001%" stop-color="rgb(30, 28, 39)" stop-opacity="1"/>
         <stop offset="100%" stop-color="rgb(20, 17, 30)" stop-opacity="1"/>
      </linearGradient>
      <linearGradient x1="14.356" y1="27.272" x2="110.679" y2="28.981" id="Gradient_wSRzYIbF9Q" inkscape:label="Gradient_wSRzYIbF9Q" gradientUnits="userSpaceOnUse">
         <stop offset="0%" stop-color="rgb(62, 59, 71)" stop-opacity="1"/>
         <stop offset="41.699999999999996%" stop-color="rgb(47, 45, 57)" stop-opacity="1"/>
         <stop offset="100%" stop-color="rgb(33, 31, 42)" stop-opacity="1"/>
      </linearGradient>
      <linearGradient x1="14.356" y1="27.272" x2="110.679" y2="28.981" id="linearGradient_28" inkscape:label="Gradient_wSRzYIbF9Q" gradientUnits="userSpaceOnUse">
         <stop offset="0%" stop-color="rgb(62, 59, 71)" stop-opacity="1"/>
         <stop offset="41.699999999999996%" stop-color="rgb(47, 45, 57)" stop-opacity="1"/>
         <stop offset="100%" stop-color="rgb(33, 31, 42)" stop-opacity="1"/>
      </linearGradient>
      <linearGradient x1="-28.143" y1="-41.426" x2="-0.924" y2="8.657" id="Gradient_TR69IZeW1X" inkscape:label="Gradient_TR69IZeW1X" gradientUnits="userSpaceOnUse">
         <stop offset="0%" stop-color="rgb(125, 125, 147)" stop-opacity="1"/>
         <stop offset="60.099999999999994%" stop-color="rgb(112, 112, 132)" stop-opacity="0.5"/>
         <stop offset="100%" stop-color="rgb(100, 99, 117)" stop-opacity="0"/>
      </linearGradient>
      <linearGradient x1="-28.143" y1="-41.426" x2="-0.924" y2="8.657" id="linearGradient_31" inkscape:label="Gradient_TR69IZeW1X" gradientUnits="userSpaceOnUse">
         <stop offset="0%" stop-color="rgb(125, 125, 147)" stop-opacity="1"/>
         <stop offset="60.099999999999994%" stop-color="rgb(112, 112, 132)" stop-opacity="0.5"/>
         <stop offset="100%" stop-color="rgb(100, 99, 117)" stop-opacity="0"/>
      </linearGradient>
      <linearGradient x1="92.856" y1="-33.913" x2="117.74" y2="-27.038" id="Gradient_NiWjhosqhP" inkscape:label="Gradient_NiWjhosqhP" gradientUnits="userSpaceOnUse">
         <stop offset="0%" stop-color="rgb(72, 70, 91)" stop-opacity="1"/>
         <stop offset="50.0%" stop-color="rgb(43, 41, 58)" stop-opacity="1"/>
         <stop offset="100%" stop-color="rgb(14, 11, 25)" stop-opacity="1"/>
      </linearGradient>
      <linearGradient x1="-1.635" y1="-4.332" x2="121.595" y2="25.471" id="Gradient_GcaIwEVvLw" inkscape:label="Gradient_GcaIwEVvLw" gradientUnits="userSpaceOnUse">
         <stop offset="1.7000000000000002%" stop-color="rgb(147, 147, 163)" stop-opacity="1"/>
         <stop offset="50.8%" stop-color="rgb(90, 90, 103)" stop-opacity="1"/>
         <stop offset="100%" stop-color="rgb(33, 32, 43)" stop-opacity="1"/>
      </linearGradient>
      <linearGradient x1="-1.635" y1="-4.332" x2="121.595" y2="25.471" id="linearGradient_43" inkscape:label="Gradient_GcaIwEVvLw" gradientUnits="userSpaceOnUse">
         <stop offset="1.7000000000000002%" stop-color="rgb(147, 147, 163)" stop-opacity="1"/>
         <stop offset="50.8%" stop-color="rgb(90, 90, 103)" stop-opacity="1"/>
         <stop offset="100%" stop-color="rgb(33, 32, 43)" stop-opacity="1"/>
      </linearGradient>
      <linearGradient x1="92" y1="27.5" x2="114.25" y2="36" id="Gradient_ln2OE3Vx6K" inkscape:label="Gradient_ln2OE3Vx6K" gradientUnits="userSpaceOnUse">
         <stop offset="0%" stop-color="rgb(64, 61, 79)" stop-opacity="1"/>
         <stop offset="50.0%" stop-color="rgb(42, 39, 55)" stop-opacity="1"/>
         <stop offset="100%" stop-color="rgb(20, 17, 30)" stop-opacity="1"/>
      </linearGradient>
   </defs>
   <sodipodi:namedview inkscape:pagecheckerboard="true" borderlayer="true" bordercolor="#666666" pagecolor="#ffffff"/>
   <g inkscape:groupmode="layer" id="NULL__ALL" inkscape:label="NULL  ALL" transform="matrix(1.0, 0.0, 0.0, 1.0, 256.0, 255.995)" opacity="1">
      <g inkscape:groupmode="layer" id="CAP" inkscape:label="CAP" transform="matrix(1.0, 0.0, 0.0, 1.0, -256.0, -256.0)" style="">
         <g inkscape:groupmode="layer" id="Top" inkscape:label="Top" transform="matrix(1.0, 0.0, 0.0, 1.0, 315.966, 107.18299999999999)" style="">
            <g id="Group_1" inkscape:label="Group 1" transform="matrix(1.0, 0.0, 0.0, 1.0, 0.0, 0.0)" style="fill-opacity:1.0;fill:url(#Gradient_i5ucocIjId);fill-rule:nonzero;stroke:rgb(64, 61, 79);stroke-opacity:1.0;stroke-width:7.0;stroke-miterlimit:0;stroke-linecap:round;stroke-linejoin:round">
               <path d="M 16.479,0 C 16.479,5.292 9.101,9.582 0,9.582 C -9.101,9.582 -16.479,5.292 -16.479,0 C -16.479,-5.292 -9.101,-9.582 0,-9.582 C 9.101,-9.582 16.479,-5.292 16.479,0 Z" id="Path_1" inkscape:label="Path 1" style="fill-opacity:1.0;fill:url(#linearGradient_1);fill-rule:nonzero"/>
            </g>
         </g>
         <g inkscape:groupmode="layer" id="Cap_Side_R" inkscape:label="Cap Side R" transform="matrix(1.0, 0.0, 0.0, 1.0, 0.0, 0.0)" style="">
            <g id="Group_2" inkscape:label="Group 2" transform="matrix(1.0, 0.0, 0.0, 1.0, 416.617, 227.356)" style="fill-opacity:1.0;fill:url(#Gradient_4hrSABwieU);fill-rule:nonzero">
               <path d="M 39.564,107.369 C 55.585,76.625 81.88300000000001,-79.167 -54.939,-111.373 C -31.808,-68.254 -41.114,11.202999999999989 -37.977,97.505 C -24.319999999999997,103.65299999999999 16.491000000000003,110.16999999999999 32.508,111.353 C 35.43,111.56899999999999 38.189,110.008 39.564,107.369 Z" id="path_2" inkscape:label="Path 1" style="fill-opacity:1.0;fill:url(#linearGradient_3);fill-rule:nonzero"/>
            </g>
            <g id="Group_3" inkscape:label="Group 3" transform="matrix(1.0, 0.0, 0.0, 1.0, 413.881, 219.983)" style="fill-opacity:1.0;fill:url(#Gradient_BVjFOKHOYF);fill-rule:nonzero">
               <path d="M -26.616,84.805 C -26.616,84.805 -7.536000000000001,25.085 -17.507,-62.915 C -18.246000000000002,-69.438 -13.238,-73.97699999999999 -7.321,-71.362 C 0.6190000000000007,-67.853 15.722,-51.849 24.735,-37.906 C 50.869,2.5219999999999985 49.369,72.772 35.567,103.411 C 34.058,106.762 33.369,114.52199999999999 -13.323,109.35 C 2.1189999999999998,114.52199999999999 33.368,115.022 37.351,114.983 C 54.617999999999995,84.772 69.118,21.272 33.673,-43.332 C 6.046000000000003,-93.686 -42.898,-98.305 -42.898,-98.305 C -42.898,-98.305 -11.993,-59.736999999999995 -26.616,84.805 Z" id="path_4" inkscape:label="Path 1" style="fill-opacity:1.0;fill:url(#linearGradient_5);fill-rule:nonzero"/>
            </g>
            <g id="Group_4" inkscape:label="Group 4" transform="matrix(1.0, 0.0, 0.0, 1.0, 416.617, 227.356)" style="stroke:rgb(14, 11, 25);stroke-opacity:1.0;stroke-width:7.0;stroke-miterlimit:0;stroke-linecap:round;stroke-linejoin:round">
               <path d="M 39.564,107.369 C 55.585,76.625 81.88300000000001,-79.167 -54.939,-111.373 C -31.808,-68.254 -41.114,11.202999999999989 -37.977,97.505 C -24.319999999999997,103.65299999999999 16.491000000000003,110.16999999999999 32.508,111.353 C 35.43,111.56899999999999 38.189,110.008 39.564,107.369 Z" id="path_6" inkscape:label="Path 1" style=""/>
            </g>
         </g>
         <g id="Group_6" inkscape:label="Group 6" transform="matrix(1.0, 0.0, 0.0, 1.0, 258.015, 219.409)" style="fill-opacity:1.0;fill:url(#Gradient_kHE8n3SUKU);fill-rule:nonzero;stroke:rgb(14, 11, 25);stroke-opacity:1.0;stroke-width:7.0;stroke-miterlimit:0;stroke-linecap:round;stroke-linejoin:round">
            <path d="M 120.964,105.452 C 134.849,93.726 145.697,-39.697 103.663,-103.426 C 32.272999999999996,-119.90100000000001 -29.659,-109.39699999999999 -67.185,-80.24 C -123.727,-36.30799999999999 -128.854,77.769 -128.854,77.769 C -128.854,77.769 96.502,127.75399999999999 120.964,105.452 " id="path_7" inkscape:label="Path 1" style="fill-opacity:1.0;fill:url(#linearGradient_8);fill-rule:nonzero"/>
         </g>
         <g id="Group_5" inkscape:label="Group 5" transform="matrix(1.0, 0.0, 0.0, 1.0, 284.222, 216.319)" style="fill-opacity:1.0;fill:url(#Gradient_6IVESrG3z7);fill-rule:nonzero">
            <path d="M 74.914,-97.183 C 3.524000000000001,-113.65800000000002 -55.865,-106.306 -93.391,-77.149 C -149.933,-33.217 53.457,116.343 92.643,105.224 C 105.263,95.023 113.799,-41.92300000000001 74.914,-97.183 Z" id="path_9" inkscape:label="Path 1" style="fill-opacity:1.0;fill:url(#linearGradient_10);fill-rule:nonzero"/>
         </g>
         <g id="g_11" inkscape:label="Group 4" transform="matrix(1.0, 0.0, 0.0, 1.0, 219.983, 196.065)" style="fill-opacity:1.0;fill:url(#Gradient_T4j4e1yiue);fill-rule:nonzero">
            <path d="M 84.203,-87.511 C 38.032000000000004,-84.72099999999999 -60.461,-85.87 -79.703,87.011 C -18.957,54.87499999999999 21.085,87.121 21.085,87.121 C 21.085,87.121 35.186,-28.934999999999995 84.203,-87.511 Z" id="path_12" inkscape:label="Path 1" style="fill-opacity:1.0;fill:url(#linearGradient_13);fill-rule:nonzero"/>
         </g>
         <g id="g_14" inkscape:label="Group 3" transform="matrix(1.0, 0.0, 0.0, 1.0, 210.331, 201.955)" style="stroke:rgb(169, 169, 183);stroke-opacity:1.0;stroke-width:7.0;stroke-miterlimit:0;stroke-linecap:round;stroke-linejoin:round">
            <path d="M 77.297,-93.621 C 41.619,-92.481 8.280999999999999,-79.486 -14.5,-61.786 C -71.042,-17.854 -72.797,93.121 -72.797,93.121 " id="path_15" inkscape:label="Path 1" style=""/>
         </g>
         <g id="g_16" inkscape:label="Group 2" transform="matrix(1.0, 0.0, 0.0, 1.0, 267.057, 136.578)" opacity="0.3" style="stroke:rgb(14, 11, 25);stroke-opacity:1.0;stroke-width:6.0;stroke-miterlimit:0;stroke-linecap:round;stroke-linejoin:round">
            <path d="M 25.248,-28.364 C 2.099,-25.1 -35.057,9.427000000000007 -52.748,137.114 " id="path_17" inkscape:label="Path 1" style=""/>
         </g>
         <g id="g_18" inkscape:label="Group 1" transform="matrix(1.0, 0.0, 0.0, 1.0, 237.813, 202.93)" style="stroke:url(#Gradient_fF8agqzLKB);stroke-opacity:1.0;stroke-width:7.0;stroke-miterlimit:0;stroke-linecap:round;stroke-linejoin:round">
            <path d="M -108.652,94.248 C -108.652,94.248 -103.525,-19.829 -46.983,-63.761 C -17.496999999999996,-86.671 27.056000000000004,-98.06400000000001 79.426,-93.903 C 92.938,-92.682 102.964,-91.17299999999999 113.152,-89.231 " id="path_19" inkscape:label="Path 1" style=""/>
         </g>
         <g inkscape:groupmode="layer" id="Logo" inkscape:label="Logo" transform="matrix(1.0, 0.0, 0.0, 1.0, 223.959, 212.653)" style="">
            <g id="g_20" inkscape:label="Group 1" transform="matrix(1.0, 0.0, 0.0, 1.0, 0.0, 0.0)" style="fill-opacity:1.0;fill:url(#Gradient_jQQ7QssNco);fill-rule:nonzero">
               <path d="M -38.595,-9.514 C -38.595,-9.514 37.773,-40.755 37.773,-40.755 C 40.952000000000005,-41.832 43.792,-38.533 42.82,-34.89 C 42.82,-34.89 24.093,35.316 24.093,35.316 C 22.237,42.062000000000005 16.925,42.727 11.738,37.501 C 11.738,37.501 -10.872,14.721 -10.872,14.721 C -13.088000000000001,12.488 -12.858999999999998,8.389 -10.399,6.289 C -10.399,6.289 18.388,-18.537 18.388,-18.537 C 20.855,-20.915 19.268,-23.606 15.689,-21.274 C 15.689,-21.274 -19.223,0.79 -19.223,0.79 C -23.118,3.117 -26.575,3.4669999999999996 -29.707,1.94 C -29.707,1.94 -39.153,-2.576 -39.153,-2.576 C -41.891,-3.91 -41.519,-8.523 -38.595,-9.514 Z" id="path_21" inkscape:label="Path 1" style="fill-opacity:1.0;fill:url(#linearGradient_22);fill-rule:nonzero"/>
            </g>
         </g>
      </g>
      <g inkscape:groupmode="layer" id="Visor_Main" inkscape:label="Visor Main" transform="matrix(1.0, 0.0, 0.0, 1.0, -256.0, -256.0)" style="">
         <g inkscape:groupmode="layer" id="Visor_Bottom" inkscape:label="Visor Bottom" transform="matrix(1.0, 0.0, 0.0, 1.0, 97.807, 351.531)" style="">
            <g id="g_23" inkscape:label="Group 1" transform="matrix(1.0, 0.0, 0.0, 1.0, 0.0, 0.0)" style="fill-opacity:1.0;fill:url(#Gradient_Q8QP4W5Xjb);fill-rule:nonzero;stroke:rgb(14, 11, 25);stroke-opacity:1.0;stroke-width:7.0;stroke-miterlimit:0;stroke-linecap:round;stroke-linejoin:round">
               <path d="M 56.143,-32.7 C 36.482,-17.107000000000003 -22.771999999999995,47.028 -48.535,36.181 C -68.977,27.573999999999998 -45.975,-13.332999999999998 -6.299,-30.157 C 11.873999999999999,-37.863 33.546,-40.516000000000005 56.143,-32.7 Z" id="path_24" inkscape:label="Path 1" style="fill-opacity:1.0;fill:url(#linearGradient_25);fill-rule:nonzero"/>
            </g>
         </g>
         <g id="g_26" inkscape:label="Group 4" transform="matrix(1.0, 0.0, 0.0, 1.0, 221.644, 338.728)" style="fill-opacity:1.0;fill:url(#Gradient_wSRzYIbF9Q);fill-rule:nonzero;stroke:rgb(14, 11, 25);stroke-opacity:1.0;stroke-width:7.0;stroke-miterlimit:0;stroke-linecap:round;stroke-linejoin:round">
            <path d="M -92.644,-50.482 C -143.535,-30.393 -198.678,6.4069999999999965 -177.364,41.181 C -184.499,16.755999999999997 -162.738,-12.199000000000002 -124.644,-17.457 C -35.92500000000001,-29.704 1.7960000000000065,66.32600000000001 74.135,66.272 C 141.44400000000002,66.22200000000001 182.068,-7.423 182.068,-7.423 C 34.35600000000002,-27.762 19.897999999999996,-97.05 -92.644,-50.482 Z" id="path_27" inkscape:label="Path 1" style="fill-opacity:1.0;fill:url(#linearGradient_28);fill-rule:nonzero"/>
         </g>
         <g id="g_29" inkscape:label="Group 3" transform="matrix(1.0, 0.0, 0.0, 1.0, 198.143, 315.426)" style="fill-opacity:1.0;fill:url(#Gradient_TR69IZeW1X);fill-rule:nonzero">
            <path d="M -5.753,40.058 C -5.753,40.058 47.602999999999994,-14.969 139.535,10.054 C 27.129999999999995,-41.748 11.524000000000001,-44.576 -30.092,-36.833 C -47.882,-33.522999999999996 -74.101,-22.427 -96.417,-11.86 C -120.191,-0.6029999999999998 -139.535,10.054 -139.535,10.054 C -102.30799999999999,0.6720000000000006 -52.668,1.4239999999999995 -5.753,40.058 Z" id="path_30" inkscape:label="Path 1" style="fill-opacity:1.0;fill:url(#linearGradient_31);fill-rule:nonzero"/>
         </g>
         <g id="g_32" inkscape:label="Group 2" transform="matrix(1.0, 0.0, 0.0, 1.0, 0.0, 0.0)" style="">
            <g id="g_33" inkscape:label="Group 2" transform="matrix(1.0, 0.0, 0.0, 1.0, 239.314, 337.939)" opacity="0.3" style="stroke:rgb(14, 11, 25);stroke-opacity:1.0;stroke-width:6.0;stroke-miterlimit:0;stroke-linecap:round;stroke-linejoin:round">
               <path d="M 140.416,-5.546 C 129.75,7.252999999999999 98.70500000000001,38.243 56.279,35.502 C 10.047000000000004,32.515 -27.628,-13.423000000000002 -78.569,-30.193 C -93.59,-35.138000000000005 -115.602,-37.889 -140.416,-33.414 " id="path_34" inkscape:label="Path 1" style=""/>
            </g>
            <g id="g_35" inkscape:label="Group 1" transform="matrix(1.0, 0.0, 0.0, 1.0, 234.407, 323.536)" opacity="0.3" style="stroke:rgb(14, 11, 25);stroke-opacity:1.0;stroke-width:6.0;stroke-miterlimit:0;stroke-linecap:round;stroke-linejoin:round">
               <path d="M 118.729,4.752 C 108.56,15.059000000000001 94.228,28.319 69.451,29.237 C -3.7120000000000033,31.948999999999998 -28.593999999999994,-39.96 -118.729,-27.96 " id="path_36" inkscape:label="Path 1" style=""/>
            </g>
         </g>
         <g id="g_37" inkscape:label="Group 5" transform="matrix(1.0, 0.0, 0.0, 1.0, 138.519, 322.538)" style="stroke:rgb(221, 221, 229);stroke-opacity:0.4;stroke-width:7.0;stroke-miterlimit:0;stroke-linecap:round;stroke-linejoin:round">
            <path d="M 67.987,-50.102 C 44.730999999999995,-49.032999999999994 18.473,-39.659000000000006 -4.769,-30.042 C -47.992999999999995,-12.98 -94.28399999999999,16.138 -94.192,45.831 " id="path_38" inkscape:label="Path 1" style=""/>
         </g>
         <g id="g_39" inkscape:label="Group 1" transform="matrix(1.0, 0.0, 0.0, 1.0, 133.769, 318.288)" style="stroke:url(#Gradient_NiWjhosqhP);stroke-opacity:1.0;stroke-width:7.0;stroke-miterlimit:0;stroke-linecap:round;stroke-linejoin:round">
            <path d="M 122.692,-32.619 C 74.481,-53.783 38.238,-47.838 -4.769,-30.042 C -47.992999999999995,-12.98 -94.28399999999999,16.138 -94.192,45.831 " id="path_40" inkscape:label="Path 1" style=""/>
         </g>
         <g inkscape:groupmode="layer" id="Visor_Front" inkscape:label="Visor Front" transform="matrix(1.0, 0.0, 0.0, 1.0, 0.0, 0.0)" style="">
            <g id="g_41" inkscape:label="Group 2" transform="matrix(1.0, 0.0, 0.0, 1.0, 219.635, 360.332)" style="fill-opacity:1.0;fill:url(#Gradient_GcaIwEVvLw);fill-rule:nonzero;stroke:rgb(20, 17, 30);stroke-opacity:1.0;stroke-width:7.0;stroke-miterlimit:0;stroke-linecap:round;stroke-linejoin:round">
               <path d="M -174.127,24.533 C -176.602,7.584 -160.872,-26.057000000000002 -123.015,-32.813 C -39.381,-47.738 3.534000000000006,49.044000000000004 75.873,48.99 C 145.704,44.871 184.077,-29.027 184.077,-29.027 C 184.077,-29.027 127.69399999999999,36.244 72.348,32.668 C 12.484000000000002,28.801 -32.46600000000001,-58.45 -118.703,-48.145 C -148.647,-44.567 -179.12900000000002,-25.953 -183.485,-0.576 C -186.94000000000003,19.549 -174.127,24.533 -174.127,24.533 Z" id="path_42" inkscape:label="Path 1" style="fill-opacity:1.0;fill:url(#linearGradient_43);fill-rule:nonzero"/>
            </g>
            <g id="g_44" inkscape:label="Group 1" transform="matrix(1.0, 0.0, 0.0, 1.0, 163.771, 352.171)" style="stroke:url(#Gradient_ln2OE3Vx6K);stroke-opacity:1.0;stroke-width:7.0;stroke-miterlimit:0;stroke-linecap:round;stroke-linejoin:round">
               <path d="M 128.212,40.829 C 68.34799999999998,36.962 23.397999999999996,-50.289 -62.839,-39.984 C -92.783,-36.406 -123.265,-17.791999999999998 -127.621,7.585 C -129.351,17.66 -127.003,23.939999999999998 -124.227,27.7 " id="path_45" inkscape:label="Path 1" style=""/>
            </g>
         </g>
      </g>
   </g>
</svg>
