<?xml version="1.0" ?>
<svg xmlns:inkscape="http://www.inkscape.org/namespaces/inkscape" xmlns:sodipodi="http://sodipodi.sourceforge.net/DTD/sodipodi-0.dtd" xmlns:xlink="http://www.w3.org/1999/xlink" xmlns="http://www.w3.org/2000/svg" width="512" height="512" viewBox="0 0 512 512" version="1.1" id="socks" sodipodi:docname="socks" inkscape:export-xdpi="96" inkscape:export-ydpi="96" style="fill: none; stroke: none">
   <defs>
      <linearGradient x1="-169.797" y1="40.063" x2="-96.858" y2="28.669" id="Gradient_Fill_13" inkscape:label="Gradient Fill 13" gradientUnits="userSpaceOnUse">
         <stop offset="0%" stop-color="rgb(0, 0, 0)" stop-opacity="0.3"/>
         <stop offset="50.0%" stop-color="rgb(0, 0, 0)" stop-opacity="0.3"/>
         <stop offset="100%" stop-color="rgb(0, 0, 0)" stop-opacity="0.3"/>
      </linearGradient>
      <linearGradient x1="-169.797" y1="40.063" x2="-96.858" y2="28.669" id="linearGradient_1" inkscape:label="Gradient Fill 13" gradientUnits="userSpaceOnUse">
         <stop offset="0%" stop-color="rgb(0, 0, 0)" stop-opacity="0.3"/>
         <stop offset="50.0%" stop-color="rgb(0, 0, 0)" stop-opacity="0.3"/>
         <stop offset="100%" stop-color="rgb(0, 0, 0)" stop-opacity="0.3"/>
      </linearGradient>
      <radialGradient cx="46" cy="-27" r="214.0864311440592" fx="46.0" fy="-27.0" id="Gradient_Stroke_1" inkscape:label="Gradient Stroke 1" gradientUnits="userSpaceOnUse">
         <stop offset="0%" stop-color="rgb(255, 255, 255)" stop-opacity="0.25"/>
         <stop offset="50.0%" stop-color="rgb(255, 255, 255)" stop-opacity="0.25"/>
         <stop offset="100%" stop-color="rgb(255, 255, 255)" stop-opacity="0.25"/>
      </radialGradient>
      <linearGradient x1="-117" y1="-175" x2="-43" y2="-185" id="Gradient_Fill_1" inkscape:label="Gradient Fill 1" gradientUnits="userSpaceOnUse">
         <stop offset="0%" stop-color="rgb(66, 78, 109)" stop-opacity="1"/>
         <stop offset="50.0%" stop-color="rgb(55, 66, 93)" stop-opacity="1"/>
         <stop offset="100%" stop-color="rgb(43, 53, 77)" stop-opacity="1"/>
      </linearGradient>
      <linearGradient x1="-117" y1="-175" x2="-43" y2="-185" id="linearGradient_4" inkscape:label="Gradient Fill 1" gradientUnits="userSpaceOnUse">
         <stop offset="0%" stop-color="rgb(66, 78, 109)" stop-opacity="1"/>
         <stop offset="50.0%" stop-color="rgb(55, 66, 93)" stop-opacity="1"/>
         <stop offset="100%" stop-color="rgb(43, 53, 77)" stop-opacity="1"/>
      </linearGradient>
      <linearGradient x1="-169.797" y1="40.063" x2="-96.858" y2="28.669" id="linearGradient_22" inkscape:label="Gradient Fill 13" gradientUnits="userSpaceOnUse">
         <stop offset="0%" stop-color="rgb(0, 0, 0)" stop-opacity="0.3"/>
         <stop offset="50.0%" stop-color="rgb(0, 0, 0)" stop-opacity="0.3"/>
         <stop offset="100%" stop-color="rgb(0, 0, 0)" stop-opacity="0.3"/>
      </linearGradient>
      <linearGradient x1="-169.797" y1="40.063" x2="-96.858" y2="28.669" id="linearGradient_24" inkscape:label="Gradient Fill 13" gradientUnits="userSpaceOnUse">
         <stop offset="0%" stop-color="rgb(0, 0, 0)" stop-opacity="0.3"/>
         <stop offset="50.0%" stop-color="rgb(0, 0, 0)" stop-opacity="0.3"/>
         <stop offset="100%" stop-color="rgb(0, 0, 0)" stop-opacity="0.3"/>
      </linearGradient>
      <radialGradient cx="46" cy="-27" r="214.0864311440592" fx="46.0" fy="-27.0" id="radialGradient_28" inkscape:label="Gradient Stroke 1" gradientUnits="userSpaceOnUse">
         <stop offset="0%" stop-color="rgb(255, 255, 255)" stop-opacity="0.25"/>
         <stop offset="50.0%" stop-color="rgb(255, 255, 255)" stop-opacity="0.25"/>
         <stop offset="100%" stop-color="rgb(255, 255, 255)" stop-opacity="0.25"/>
      </radialGradient>
      <linearGradient x1="-117" y1="-175" x2="-43" y2="-185" id="linearGradient_30" inkscape:label="Gradient Fill 1" gradientUnits="userSpaceOnUse">
         <stop offset="0%" stop-color="rgb(66, 78, 109)" stop-opacity="1"/>
         <stop offset="50.0%" stop-color="rgb(55, 66, 93)" stop-opacity="1"/>
         <stop offset="100%" stop-color="rgb(43, 53, 77)" stop-opacity="1"/>
      </linearGradient>
      <linearGradient x1="-117" y1="-175" x2="-43" y2="-185" id="linearGradient_32" inkscape:label="Gradient Fill 1" gradientUnits="userSpaceOnUse">
         <stop offset="0%" stop-color="rgb(66, 78, 109)" stop-opacity="1"/>
         <stop offset="50.0%" stop-color="rgb(55, 66, 93)" stop-opacity="1"/>
         <stop offset="100%" stop-color="rgb(43, 53, 77)" stop-opacity="1"/>
      </linearGradient>
   </defs>
   <sodipodi:namedview inkscape:pagecheckerboard="true" borderlayer="true" bordercolor="#666666" pagecolor="#ffffff"/>
   <g inkscape:groupmode="layer" id="Null_9" inkscape:label="Null 9" transform="matrix(1.0, 0.0, 0.0, 1.0, 256.0, 256.0)" opacity="1">
      <g inkscape:groupmode="layer" id="right_null" inkscape:label="right null" transform="matrix(1.0, 0.0, 0.0, 1.0, -3.932, -201.338)" opacity="1">
         <g inkscape:groupmode="layer" id="right" inkscape:label="right" transform="matrix(1.0, 0.0, 0.0, 1.0, 74.0, 172.0)" style="">
            <g id="stroke">
               <use xlink:href="#base" style="stroke:rgb(20, 27, 41);stroke-opacity:1.0;stroke-width:16.0;stroke-miterlimit:0;stroke-linecap:round;stroke-linejoin:round"/>
               <g inkscape:groupmode="layer" id="base" inkscape:label="base" transform="matrix(1.0, 0.0, 0.0, 1.0, 0.0, 0.0)" style="fill-opacity:1.0;fill:url(#Gradient_Fill_13);fill-rule:nonzero">
                  <path d="M 115.761,94.341 C 83.52799999999999,65.83699999999999 47.729,38.291000000000004 22.917,3.825 C -0.2989999999999995,-28.425 -13.493,-170.765 -15.188,-191.849 C -52.825,-198.35999999999999 -90.293,-190.899 -123.531,-172.76 C -113.992,-138.909 -79.437,-14.730999999999998 -93.372,17.654 C -105.832,46.611999999999995 -84.999,85.839 -53.653,91.101 C -13.515999999999998,97.839 9.349000000000004,145.527 32.395,174.101 C 51.102000000000004,197.295 100.38399999999999,207.75400000000002 123.207,186.478 C 146.56199999999998,164.707 138.046,114.048 115.761,94.341 Z" id="Path_1" inkscape:label="Path 1" style="fill-opacity:1.0;fill:url(#linearGradient_1);fill-rule:nonzero"/>
               </g>
            </g>
            <g inkscape:groupmode="layer" id="base_light" inkscape:label="base light" transform="matrix(1.0, 0.0, 0.0, 1.0, 9.5, 4.5)" style="stroke:url(#Gradient_Stroke_1);stroke-opacity:1.0;stroke-width:8.0;stroke-miterlimit:4.0;stroke-linecap:round;stroke-linejoin:miter">
               <path d="M -124.501,-163.934 C -92.49700000000001,-160.396 -53.491,-162.285 -26.45,-179.257 C -24.014,-153.868 -20.612,-127.446 -16.083,-98.733 C -11.052999999999997,-66.872 -8.241999999999999,-24.755 10.923,1.867 C 31.115000000000002,29.917 56.574,55.95099999999999 85.017,76.255 C 134.864,111.838 124.94,165.261 110.731,178.507 " id="path_2" inkscape:label="Path 1" style=""/>
            </g>
            <g id="g_5">
               <use xlink:href="#top" style="stroke:rgb(20, 27, 41);stroke-opacity:1.0;stroke-width:16.0;stroke-miterlimit:0;stroke-linecap:round;stroke-linejoin:round"/>
               <g inkscape:groupmode="layer" id="top" inkscape:label="top" transform="matrix(1.0, 0.0, 0.0, 1.0, 0.0, 0.0)" style="fill-opacity:1.0;fill:url(#Gradient_Fill_1);fill-rule:nonzero">
                  <path d="M -15.188,-191.849 C -52.825,-198.35999999999999 -90.293,-190.899 -123.531,-172.76 C -123.531,-172.76 -123.531,-172.76 -123.531,-172.76 C -90.48100000000001,-167.65699999999998 -41.544000000000004,-167.772 -15.188,-191.849 C -15.188,-191.849 -15.188,-191.849 -15.188,-191.849 Z" id="path_3" inkscape:label="Path 1" style="fill-opacity:1.0;fill:url(#linearGradient_4);fill-rule:nonzero"/>
               </g>
            </g>
            <g inkscape:groupmode="layer" id="light" inkscape:label="light" transform="matrix(1.0, 0.0, 0.0, 1.0, -161.5, -276.75)" opacity="0.2" style="">
               <g id="Group_4" inkscape:label="Group 4" transform="matrix(1.0, 0.0, 0.0, 1.0, 91.188, 226.161)" style="stroke:rgb(147, 169, 219);stroke-opacity:1.0;stroke-width:5.0;stroke-miterlimit:0;stroke-linecap:butt;stroke-linejoin:round">
                  <path d="M -0.993,-78.702 C 9.261,-27.290999999999997 29.497,32.293 15.439,84.69 " id="path_6" inkscape:label="Path 1" style=""/>
               </g>
               <g id="Group_3" inkscape:label="Group 3" transform="matrix(1.0, 0.0, 0.0, 1.0, 70.499, 219.165)" style="stroke:rgb(147, 169, 219);stroke-opacity:1.0;stroke-width:5.0;stroke-miterlimit:0;stroke-linecap:butt;stroke-linejoin:round">
                  <path d="M -1.606,-70.454 C 7.868,-21.876999999999995 28.006999999999998,29.991999999999997 15.693,79.821 " id="path_7" inkscape:label="Path 1" style=""/>
               </g>
               <g id="Group_2" inkscape:label="Group 2" transform="matrix(1.0, 0.0, 0.0, 1.0, 179.912, 262.018)" style="stroke:rgb(147, 169, 219);stroke-opacity:1.0;stroke-width:5.0;stroke-miterlimit:0;stroke-linecap:butt;stroke-linejoin:round">
                  <path d="M -51.282,-122.622 C -42.788,-74.87299999999999 -38.864999999999995,-20.196 -17.875,24.069 C 0.6859999999999999,63.211 37.09,93.619 69.983,120.809 " id="path_8" inkscape:label="Path 1" style=""/>
               </g>
               <g id="Group_1" inkscape:label="Group 1" transform="matrix(1.0, 0.0, 0.0, 1.0, 159.759, 270.799)" style="stroke:rgb(147, 169, 219);stroke-opacity:1.0;stroke-width:5.0;stroke-miterlimit:0;stroke-linecap:butt;stroke-linejoin:round">
                  <path d="M -49.267,-126.5 C -41.142,-76.904 -35.992999999999995,-26.763 -18.314,20.429 C -2.0509999999999984,63.843 37.522999999999996,96.53800000000001 71.939,125.813 " id="path_9" inkscape:label="Path 1" style=""/>
               </g>
            </g>
            <g inkscape:groupmode="layer" id="strokes" inkscape:label="strokes" transform="matrix(1.0, 0.0, 0.0, 1.0, -159.5, -277.5)" style="">
               <g id="Group_7" inkscape:label="Group 7" transform="matrix(1.0, 0.0, 0.0, 1.0, 97.936, 136.374)" style="stroke:rgb(20, 27, 41);stroke-opacity:1.0;stroke-width:3.0;stroke-miterlimit:0;stroke-linecap:round;stroke-linejoin:round">
                  <path d="M -50.68,9.638 C -19.102,14.702 24.284,10.756000000000002 51.007,-8.213 " id="path_10" inkscape:label="Path 1" style=""/>
               </g>
               <g id="Group_6" inkscape:label="Group 6" transform="matrix(1.0, 0.0, 0.0, 1.0, 212.014, 413.754)" style="stroke:rgb(20, 27, 41);stroke-opacity:1.0;stroke-width:3.0;stroke-miterlimit:0;stroke-linecap:round;stroke-linejoin:round">
                  <path d="M -19.905,37.467 C 3.1340000000000003,3.6030000000000015 21.104999999999997,-29.554000000000002 63.461,-42.292 " id="path_11" inkscape:label="Path 1" style=""/>
               </g>
               <g id="Group_5" inkscape:label="Group 5" transform="matrix(1.0, 0.0, 0.0, 1.0, 69.168, 328.029)" style="stroke:rgb(20, 27, 41);stroke-opacity:1.0;stroke-width:3.0;stroke-miterlimit:0;stroke-linecap:round;stroke-linejoin:round">
                  <path d="M -2.827,-33.255 C 16.823999999999998,-31.256000000000004 33.935,-21.842 42.543,-8.454 C 51.150999999999996,4.933999999999999 51.255,22.297 36.892,40.192 " id="path_12" inkscape:label="Path 1" style=""/>
               </g>
               <g id="g_13" inkscape:label="Group 4" transform="matrix(1.0, 0.0, 0.0, 1.0, 91.188, 226.161)" style="stroke:rgb(20, 27, 41);stroke-opacity:1.0;stroke-width:3.0;stroke-miterlimit:0;stroke-linecap:round;stroke-linejoin:round">
                  <path d="M -0.993,-78.702 C 9.261,-27.290999999999997 29.497,32.293 15.439,84.69 " id="path_14" inkscape:label="Path 1" style=""/>
               </g>
               <g id="g_15" inkscape:label="Group 3" transform="matrix(1.0, 0.0, 0.0, 1.0, 70.499, 219.165)" style="stroke:rgb(20, 27, 41);stroke-opacity:1.0;stroke-width:3.0;stroke-miterlimit:0;stroke-linecap:round;stroke-linejoin:round">
                  <path d="M -1.606,-70.454 C 7.868,-21.876999999999995 28.006999999999998,29.991999999999997 15.693,79.821 " id="path_16" inkscape:label="Path 1" style=""/>
               </g>
               <g id="g_17" inkscape:label="Group 2" transform="matrix(1.0, 0.0, 0.0, 1.0, 179.912, 262.018)" style="stroke:rgb(20, 27, 41);stroke-opacity:1.0;stroke-width:3.0;stroke-miterlimit:0;stroke-linecap:round;stroke-linejoin:round">
                  <path d="M -51.282,-122.622 C -42.788,-74.87299999999999 -38.864999999999995,-20.196 -17.875,24.069 C 0.6859999999999999,63.211 37.09,93.619 69.983,120.809 " id="path_18" inkscape:label="Path 1" style=""/>
               </g>
               <g id="g_19" inkscape:label="Group 1" transform="matrix(1.0, 0.0, 0.0, 1.0, 159.759, 270.799)" style="stroke:rgb(20, 27, 41);stroke-opacity:1.0;stroke-width:3.0;stroke-miterlimit:0;stroke-linecap:round;stroke-linejoin:round">
                  <path d="M -49.267,-126.5 C -41.142,-76.904 -35.992999999999995,-26.763 -18.314,20.429 C -2.0509999999999984,63.843 37.522999999999996,96.53800000000001 71.939,125.813 " id="path_20" inkscape:label="Path 1" style=""/>
               </g>
            </g>
         </g>
      </g>
      <g inkscape:groupmode="layer" id="left" inkscape:label="left" transform="matrix(1.0, 0.0, 0.0, 1.0, -89.364, 19.662000000000006)" style="">
         <g id="g_25">
            <use xlink:href="#g_21" style="stroke:rgb(20, 27, 41);stroke-opacity:1.0;stroke-width:16.0;stroke-miterlimit:0;stroke-linecap:round;stroke-linejoin:round"/>
            <g inkscape:groupmode="layer" id="g_21" inkscape:label="base" transform="matrix(1.0, 0.0, 0.0, 1.0, 0.0, 0.0)" style="fill-opacity:1.0;fill:url(#linearGradient_22);fill-rule:nonzero">
               <path d="M 115.761,94.341 C 83.52799999999999,65.83699999999999 47.729,38.291000000000004 22.917,3.825 C -0.2989999999999995,-28.425 -13.493,-170.765 -15.188,-191.849 C -52.825,-198.35999999999999 -90.293,-190.899 -123.531,-172.76 C -113.992,-138.909 -79.437,-14.730999999999998 -93.372,17.654 C -105.832,46.611999999999995 -84.999,85.839 -53.653,91.101 C -13.515999999999998,97.839 9.349000000000004,145.527 32.395,174.101 C 51.102000000000004,197.295 100.38399999999999,207.75400000000002 123.207,186.478 C 146.56199999999998,164.707 138.046,114.048 115.761,94.341 Z" id="path_23" inkscape:label="Path 1" style="fill-opacity:1.0;fill:url(#linearGradient_24);fill-rule:nonzero"/>
            </g>
         </g>
         <g inkscape:groupmode="layer" id="g_26" inkscape:label="base light" transform="matrix(1.0, 0.0, 0.0, 1.0, 9.5, 4.5)" style="stroke:url(#radialGradient_28);stroke-opacity:1.0;stroke-width:8.0;stroke-miterlimit:4.0;stroke-linecap:round;stroke-linejoin:miter">
            <path d="M -124.501,-163.934 C -92.49700000000001,-160.396 -53.491,-162.285 -26.45,-179.257 C -24.014,-153.868 -20.612,-127.446 -16.083,-98.733 C -11.052999999999997,-66.872 -8.241999999999999,-24.755 10.923,1.867 C 31.115000000000002,29.917 56.574,55.95099999999999 85.017,76.255 C 134.864,111.838 124.94,165.261 110.731,178.507 " id="path_27" inkscape:label="Path 1" style=""/>
         </g>
         <g id="g_33">
            <use xlink:href="#g_29" style="stroke:rgb(20, 27, 41);stroke-opacity:1.0;stroke-width:16.0;stroke-miterlimit:0;stroke-linecap:round;stroke-linejoin:round"/>
            <g inkscape:groupmode="layer" id="g_29" inkscape:label="top" transform="matrix(1.0, 0.0, 0.0, 1.0, 0.0, 0.0)" style="fill-opacity:1.0;fill:url(#linearGradient_30);fill-rule:nonzero">
               <path d="M -15.188,-191.849 C -52.825,-198.35999999999999 -90.293,-190.899 -123.531,-172.76 C -123.531,-172.76 -123.531,-172.76 -123.531,-172.76 C -90.48100000000001,-167.65699999999998 -41.544000000000004,-167.772 -15.188,-191.849 C -15.188,-191.849 -15.188,-191.849 -15.188,-191.849 Z" id="path_31" inkscape:label="Path 1" style="fill-opacity:1.0;fill:url(#linearGradient_32);fill-rule:nonzero"/>
            </g>
         </g>
         <g inkscape:groupmode="layer" id="g_34" inkscape:label="light" transform="matrix(1.0, 0.0, 0.0, 1.0, -161.5, -276.75)" opacity="0.2" style="">
            <g id="g_35" inkscape:label="Group 4" transform="matrix(1.0, 0.0, 0.0, 1.0, 91.188, 226.161)" style="stroke:rgb(147, 169, 219);stroke-opacity:1.0;stroke-width:5.0;stroke-miterlimit:0;stroke-linecap:butt;stroke-linejoin:round">
               <path d="M -0.993,-78.702 C 9.261,-27.290999999999997 29.497,32.293 15.439,84.69 " id="path_36" inkscape:label="Path 1" style=""/>
            </g>
            <g id="g_37" inkscape:label="Group 3" transform="matrix(1.0, 0.0, 0.0, 1.0, 70.499, 219.165)" style="stroke:rgb(147, 169, 219);stroke-opacity:1.0;stroke-width:5.0;stroke-miterlimit:0;stroke-linecap:butt;stroke-linejoin:round">
               <path d="M -1.606,-70.454 C 7.868,-21.876999999999995 28.006999999999998,29.991999999999997 15.693,79.821 " id="path_38" inkscape:label="Path 1" style=""/>
            </g>
            <g id="g_39" inkscape:label="Group 2" transform="matrix(1.0, 0.0, 0.0, 1.0, 179.912, 262.018)" style="stroke:rgb(147, 169, 219);stroke-opacity:1.0;stroke-width:5.0;stroke-miterlimit:0;stroke-linecap:butt;stroke-linejoin:round">
               <path d="M -51.282,-122.622 C -42.788,-74.87299999999999 -38.864999999999995,-20.196 -17.875,24.069 C 0.6859999999999999,63.211 37.09,93.619 69.983,120.809 " id="path_40" inkscape:label="Path 1" style=""/>
            </g>
            <g id="g_41" inkscape:label="Group 1" transform="matrix(1.0, 0.0, 0.0, 1.0, 159.759, 270.799)" style="stroke:rgb(147, 169, 219);stroke-opacity:1.0;stroke-width:5.0;stroke-miterlimit:0;stroke-linecap:butt;stroke-linejoin:round">
               <path d="M -49.267,-126.5 C -41.142,-76.904 -35.992999999999995,-26.763 -18.314,20.429 C -2.0509999999999984,63.843 37.522999999999996,96.53800000000001 71.939,125.813 " id="path_42" inkscape:label="Path 1" style=""/>
            </g>
         </g>
         <g inkscape:groupmode="layer" id="g_43" inkscape:label="strokes" transform="matrix(1.0, 0.0, 0.0, 1.0, -159.5, -277.5)" style="">
            <g id="g_44" inkscape:label="Group 7" transform="matrix(1.0, 0.0, 0.0, 1.0, 97.936, 136.374)" style="stroke:rgb(20, 27, 41);stroke-opacity:1.0;stroke-width:3.0;stroke-miterlimit:0;stroke-linecap:round;stroke-linejoin:round">
               <path d="M -50.68,9.638 C -19.102,14.702 24.284,10.756000000000002 51.007,-8.213 " id="path_45" inkscape:label="Path 1" style=""/>
            </g>
            <g id="g_46" inkscape:label="Group 6" transform="matrix(1.0, 0.0, 0.0, 1.0, 212.014, 413.754)" style="stroke:rgb(20, 27, 41);stroke-opacity:1.0;stroke-width:3.0;stroke-miterlimit:0;stroke-linecap:round;stroke-linejoin:round">
               <path d="M -19.905,37.467 C 3.1340000000000003,3.6030000000000015 21.104999999999997,-29.554000000000002 63.461,-42.292 " id="path_47" inkscape:label="Path 1" style=""/>
            </g>
            <g id="g_48" inkscape:label="Group 5" transform="matrix(1.0, 0.0, 0.0, 1.0, 69.168, 328.029)" style="stroke:rgb(20, 27, 41);stroke-opacity:1.0;stroke-width:3.0;stroke-miterlimit:0;stroke-linecap:round;stroke-linejoin:round">
               <path d="M -2.827,-33.255 C 16.823999999999998,-31.256000000000004 33.935,-21.842 42.543,-8.454 C 51.150999999999996,4.933999999999999 51.255,22.297 36.892,40.192 " id="path_49" inkscape:label="Path 1" style=""/>
            </g>
            <g id="g_50" inkscape:label="Group 4" transform="matrix(1.0, 0.0, 0.0, 1.0, 91.188, 226.161)" style="stroke:rgb(20, 27, 41);stroke-opacity:1.0;stroke-width:3.0;stroke-miterlimit:0;stroke-linecap:round;stroke-linejoin:round">
               <path d="M -0.993,-78.702 C 9.261,-27.290999999999997 29.497,32.293 15.439,84.69 " id="path_51" inkscape:label="Path 1" style=""/>
            </g>
            <g id="g_52" inkscape:label="Group 3" transform="matrix(1.0, 0.0, 0.0, 1.0, 70.499, 219.165)" style="stroke:rgb(20, 27, 41);stroke-opacity:1.0;stroke-width:3.0;stroke-miterlimit:0;stroke-linecap:round;stroke-linejoin:round">
               <path d="M -1.606,-70.454 C 7.868,-21.876999999999995 28.006999999999998,29.991999999999997 15.693,79.821 " id="path_53" inkscape:label="Path 1" style=""/>
            </g>
            <g id="g_54" inkscape:label="Group 2" transform="matrix(1.0, 0.0, 0.0, 1.0, 179.912, 262.018)" style="stroke:rgb(20, 27, 41);stroke-opacity:1.0;stroke-width:3.0;stroke-miterlimit:0;stroke-linecap:round;stroke-linejoin:round">
               <path d="M -51.282,-122.622 C -42.788,-74.87299999999999 -38.864999999999995,-20.196 -17.875,24.069 C 0.6859999999999999,63.211 37.09,93.619 69.983,120.809 " id="path_55" inkscape:label="Path 1" style=""/>
            </g>
            <g id="g_56" inkscape:label="Group 1" transform="matrix(1.0, 0.0, 0.0, 1.0, 159.759, 270.799)" style="stroke:rgb(20, 27, 41);stroke-opacity:1.0;stroke-width:3.0;stroke-miterlimit:0;stroke-linecap:round;stroke-linejoin:round">
               <path d="M -49.267,-126.5 C -41.142,-76.904 -35.992999999999995,-26.763 -18.314,20.429 C -2.0509999999999984,63.843 37.522999999999996,96.53800000000001 71.939,125.813 " id="path_57" inkscape:label="Path 1" style=""/>
            </g>
         </g>
      </g>
   </g>
</svg>
