<?xml version="1.0" ?>
<svg xmlns:inkscape="http://www.inkscape.org/namespaces/inkscape" xmlns:sodipodi="http://sodipodi.sourceforge.net/DTD/sodipodi-0.dtd" xmlns="http://www.w3.org/2000/svg" width="512" height="512" viewBox="0 0 512 512" version="1.1" id="svg_1" sodipodi:docname="004_RING" inkscape:export-xdpi="96" inkscape:export-ydpi="96" style="fill: none; stroke: none">
   <defs>
      <radialGradient cx="-80.337" cy="72.282" r="68.91292045037709" fx="-80.337" fy="72.282" id="hqtwqerqw" inkscape:label="hqtwqerqw" gradientUnits="userSpaceOnUse">
         <stop offset="0%" stop-color="rgb(255, 255, 255)" stop-opacity="1"/>
         <stop offset="50.0%" stop-color="rgb(255, 255, 255)" stop-opacity="0.5"/>
         <stop offset="100%" stop-color="rgb(255, 255, 255)" stop-opacity="0"/>
      </radialGradient>
      <radialGradient cx="-80.337" cy="72.282" r="68.91292045037709" fx="-80.337" fy="72.282" id="radialGradient_2" inkscape:label="hqtwqerqw" gradientUnits="userSpaceOnUse">
         <stop offset="0%" stop-color="rgb(255, 255, 255)" stop-opacity="1"/>
         <stop offset="50.0%" stop-color="rgb(255, 255, 255)" stop-opacity="0.5"/>
         <stop offset="100%" stop-color="rgb(255, 255, 255)" stop-opacity="0"/>
      </radialGradient>
      <radialGradient cx="-21.866" cy="-113.956" r="267.52395116699364" fx="-21.866" fy="-113.956" id="lhfflh" inkscape:label="lhfflh" gradientUnits="userSpaceOnUse">
         <stop offset="43.6%" stop-color="rgb(247, 218, 111)" stop-opacity="1"/>
         <stop offset="70.39999999999999%" stop-color="rgb(222, 175, 79)" stop-opacity="1"/>
         <stop offset="92.4%" stop-color="rgb(196, 133, 46)" stop-opacity="1"/>
      </radialGradient>
      <radialGradient cx="-21.866" cy="-113.956" r="267.52395116699364" fx="-21.866" fy="-113.956" id="radialGradient_5" inkscape:label="lhfflh" gradientUnits="userSpaceOnUse">
         <stop offset="43.6%" stop-color="rgb(247, 218, 111)" stop-opacity="1"/>
         <stop offset="70.39999999999999%" stop-color="rgb(222, 175, 79)" stop-opacity="1"/>
         <stop offset="92.4%" stop-color="rgb(196, 133, 46)" stop-opacity="1"/>
      </radialGradient>
      <radialGradient cx="71.599" cy="90.259" r="53.31053563790182" fx="71.599" fy="90.259" id="nasf" inkscape:label="nasf" gradientUnits="userSpaceOnUse">
         <stop offset="0%" stop-color="rgb(255, 239, 118)" stop-opacity="1"/>
         <stop offset="50.0%" stop-color="rgb(255, 239, 118)" stop-opacity="0.5"/>
         <stop offset="99.9%" stop-color="rgb(255, 239, 118)" stop-opacity="0"/>
      </radialGradient>
      <radialGradient cx="71.599" cy="90.259" r="53.31053563790182" fx="71.599" fy="90.259" id="radialGradient_8" inkscape:label="nasf" gradientUnits="userSpaceOnUse">
         <stop offset="0%" stop-color="rgb(255, 239, 118)" stop-opacity="1"/>
         <stop offset="50.0%" stop-color="rgb(255, 239, 118)" stop-opacity="0.5"/>
         <stop offset="99.9%" stop-color="rgb(255, 239, 118)" stop-opacity="0"/>
      </radialGradient>
      <radialGradient cx="135.394" cy="-129.202" r="127.35402789075812" fx="135.394" fy="-129.202" id="wht" inkscape:label="wht" gradientUnits="userSpaceOnUse">
         <stop offset="0%" stop-color="rgb(255, 255, 255)" stop-opacity="1"/>
         <stop offset="25.3%" stop-color="rgb(253, 248, 206)" stop-opacity="1"/>
         <stop offset="55.400000000000006%" stop-color="rgb(252, 241, 156)" stop-opacity="1"/>
         <stop offset="70.5%" stop-color="rgb(249, 223, 132)" stop-opacity="0.5"/>
         <stop offset="88.6%" stop-color="rgb(245, 205, 107)" stop-opacity="0"/>
      </radialGradient>
      <radialGradient cx="135.394" cy="-129.202" r="127.35402789075812" fx="135.394" fy="-129.202" id="radialGradient_11" inkscape:label="wht" gradientUnits="userSpaceOnUse">
         <stop offset="0%" stop-color="rgb(255, 255, 255)" stop-opacity="1"/>
         <stop offset="25.3%" stop-color="rgb(253, 248, 206)" stop-opacity="1"/>
         <stop offset="55.400000000000006%" stop-color="rgb(252, 241, 156)" stop-opacity="1"/>
         <stop offset="70.5%" stop-color="rgb(249, 223, 132)" stop-opacity="0.5"/>
         <stop offset="88.6%" stop-color="rgb(245, 205, 107)" stop-opacity="0"/>
      </radialGradient>
      <linearGradient x1="0.727" y1="-53.08" x2="0.355" y2="-180.91" id="jsdgq" inkscape:label="jsdgq" gradientUnits="userSpaceOnUse">
         <stop offset="0%" stop-color="rgb(149, 91, 30)" stop-opacity="1"/>
         <stop offset="69.39999999999999%" stop-color="rgb(190, 130, 54)" stop-opacity="1"/>
         <stop offset="100%" stop-color="rgb(232, 169, 78)" stop-opacity="1"/>
      </linearGradient>
      <radialGradient cx="-0.878" cy="-140.925" r="177.5879813275662" fx="-0.878" fy="-140.925" id="bdaab" inkscape:label="bdaab" gradientUnits="userSpaceOnUse">
         <stop offset="43.6%" stop-color="rgb(247, 218, 111)" stop-opacity="1"/>
         <stop offset="70.39999999999999%" stop-color="rgb(222, 175, 79)" stop-opacity="1"/>
         <stop offset="92.4%" stop-color="rgb(196, 133, 46)" stop-opacity="1"/>
      </radialGradient>
      <radialGradient cx="-0.878" cy="-140.925" r="177.5879813275662" fx="-0.878" fy="-140.925" id="radialGradient_16" inkscape:label="bdaab" gradientUnits="userSpaceOnUse">
         <stop offset="43.6%" stop-color="rgb(247, 218, 111)" stop-opacity="1"/>
         <stop offset="70.39999999999999%" stop-color="rgb(222, 175, 79)" stop-opacity="1"/>
         <stop offset="92.4%" stop-color="rgb(196, 133, 46)" stop-opacity="1"/>
      </radialGradient>
      <radialGradient cx="-3.866" cy="-134.956" r="43.76899999999999" fx="-3.866" fy="-134.956" id="wyer" inkscape:label="wyer" gradientUnits="userSpaceOnUse">
         <stop offset="43.6%" stop-color="rgb(202, 143, 49)" stop-opacity="1"/>
         <stop offset="70.39999999999999%" stop-color="rgb(189, 129, 40)" stop-opacity="1"/>
         <stop offset="92.4%" stop-color="rgb(176, 114, 31)" stop-opacity="1"/>
      </radialGradient>
      <radialGradient cx="-3.866" cy="-134.956" r="43.76899999999999" fx="-3.866" fy="-134.956" id="radialGradient_21" inkscape:label="wyer" gradientUnits="userSpaceOnUse">
         <stop offset="43.6%" stop-color="rgb(202, 143, 49)" stop-opacity="1"/>
         <stop offset="70.39999999999999%" stop-color="rgb(189, 129, 40)" stop-opacity="1"/>
         <stop offset="92.4%" stop-color="rgb(176, 114, 31)" stop-opacity="1"/>
      </radialGradient>
      <linearGradient x1="-17.109" y1="-156.413" x2="16.318" y2="-83.566" id="jw" inkscape:label="jw" gradientUnits="userSpaceOnUse">
         <stop offset="0%" stop-color="rgb(255, 255, 255)" stop-opacity="1"/>
         <stop offset="20.9%" stop-color="rgb(253, 248, 206)" stop-opacity="1"/>
         <stop offset="41.9%" stop-color="rgb(252, 241, 156)" stop-opacity="1"/>
         <stop offset="67.10000000000001%" stop-color="rgb(229, 171, 78)" stop-opacity="1"/>
         <stop offset="92.30000000000001%" stop-color="rgb(207, 100, 0)" stop-opacity="1"/>
      </linearGradient>
      <linearGradient x1="-17.109" y1="-156.413" x2="16.318" y2="-83.566" id="linearGradient_23" inkscape:label="jw" gradientUnits="userSpaceOnUse">
         <stop offset="0%" stop-color="rgb(255, 255, 255)" stop-opacity="1"/>
         <stop offset="20.9%" stop-color="rgb(253, 248, 206)" stop-opacity="1"/>
         <stop offset="41.9%" stop-color="rgb(252, 241, 156)" stop-opacity="1"/>
         <stop offset="67.10000000000001%" stop-color="rgb(229, 171, 78)" stop-opacity="1"/>
         <stop offset="92.30000000000001%" stop-color="rgb(207, 100, 0)" stop-opacity="1"/>
      </linearGradient>
      <linearGradient x1="0" y1="14.341" x2="-1.779" y2="-74.894" id="gasdga" inkscape:label="gasdga" gradientUnits="userSpaceOnUse">
         <stop offset="0%" stop-color="rgb(248, 246, 172)" stop-opacity="0"/>
         <stop offset="69.39999999999999%" stop-color="rgb(248, 246, 172)" stop-opacity="0.5"/>
         <stop offset="100%" stop-color="rgb(248, 246, 172)" stop-opacity="1"/>
      </linearGradient>
      <linearGradient x1="0" y1="79.462" x2="2.006" y2="155.893" id="linearGradient_29" inkscape:label="gasdga" gradientUnits="userSpaceOnUse">
         <stop offset="0%" stop-color="rgb(248, 246, 172)" stop-opacity="0"/>
         <stop offset="69.39999999999999%" stop-color="rgb(248, 246, 172)" stop-opacity="0.5"/>
         <stop offset="100%" stop-color="rgb(248, 246, 172)" stop-opacity="1"/>
      </linearGradient>
      <linearGradient x1="32.134" y1="-78.956" x2="-17.932" y2="-151.91" id="mwryj" inkscape:label="mwryj" gradientUnits="userSpaceOnUse">
         <stop offset="0%" stop-color="rgb(255, 255, 255)" stop-opacity="1"/>
         <stop offset="24.3%" stop-color="rgb(253, 248, 206)" stop-opacity="1"/>
         <stop offset="48.6%" stop-color="rgb(252, 241, 156)" stop-opacity="1"/>
         <stop offset="69.5%" stop-color="rgb(232, 199, 104)" stop-opacity="1"/>
         <stop offset="90.4%" stop-color="rgb(212, 158, 51)" stop-opacity="1"/>
      </linearGradient>
      <linearGradient x1="32.134" y1="-78.956" x2="-17.932" y2="-151.91" id="linearGradient_32" inkscape:label="mwryj" gradientUnits="userSpaceOnUse">
         <stop offset="0%" stop-color="rgb(255, 255, 255)" stop-opacity="1"/>
         <stop offset="24.3%" stop-color="rgb(253, 248, 206)" stop-opacity="1"/>
         <stop offset="48.6%" stop-color="rgb(252, 241, 156)" stop-opacity="1"/>
         <stop offset="69.5%" stop-color="rgb(232, 199, 104)" stop-opacity="1"/>
         <stop offset="90.4%" stop-color="rgb(212, 158, 51)" stop-opacity="1"/>
      </linearGradient>
   </defs>
   <sodipodi:namedview inkscape:pagecheckerboard="true" borderlayer="true" bordercolor="#666666" pagecolor="#ffffff"/>
   <g inkscape:groupmode="layer" id="top" inkscape:label="top" transform="matrix(1.0, 0.0, 0.0, 1.0, 256.0, 256.0)" style="">
      <g inkscape:groupmode="layer" id="back" inkscape:label="back" transform="matrix(1.0, 0.0, 0.0, 1.0, 0.0, 0.0)" style="">
         <g id="Group_1" inkscape:label="Group 1" transform="matrix(1.0, 0.0, 0.0, 1.0, 0.0, 0.0)" style="fill-opacity:1.0;fill:url(#hqtwqerqw);fill-rule:nonzero;stroke:rgb(117, 117, 117);stroke-opacity:1.0;stroke-width:8.0;stroke-miterlimit:0;stroke-linecap:round;stroke-linejoin:round">
            <path d="M -183.427,57.323 C -189.93099999999998,138.069 -79.456,167.775 0,167.788 C 79.482,167.80100000000002 186.757,140.201 183.506,57.323 C 178.861,36.977000000000004 166.619,13.023000000000001 153.726,-3.737 C 114.114,124.21300000000001 -118.5,107.5 -151.647,-6.237 C -164.54,10.523000000000001 -178.78199999999998,36.977000000000004 -183.427,57.323 Z" id="Path_1" inkscape:label="Path 1" style="fill-opacity:1.0;fill:url(#radialGradient_2);fill-rule:nonzero"/>
         </g>
      </g>
      <g id="g_3" inkscape:label="Group 1" transform="matrix(1.0, 0.0, 0.0, 1.0, 0.0, 0.0)" style="fill-opacity:1.0;fill:url(#lhfflh);fill-rule:nonzero">
         <path d="M 189.56,-80.459 C 170.043,-121.333 123.196,-174.59799999999998 112.363,-186.236 C 112.363,-186.236 -113.133,-185.721 -113.133,-185.721 C -113.133,-185.721 -167.199,-125.417 -188.08,-83.709 C -230.25,0.5210000000000008 -207.0,69.5 -200.139,83.891 C -209.095,-86.67899999999999 210.5,-84.49999999999999 201.12,83.391 C 204.542,75.31400000000001 232.547,9.570999999999998 189.56,-80.459 Z" id="path_4" inkscape:label="Path 1" style="fill-opacity:1.0;fill:url(#radialGradient_5);fill-rule:nonzero"/>
      </g>
      <g inkscape:groupmode="layer" id="bok" inkscape:label="bok" transform="matrix(1.0, 0.0, 0.0, 1.0, 0.0, 0.0)" style="">
         <g id="g_6" inkscape:label="Group 1" transform="matrix(1.0, 0.0, 0.0, 1.0, 0.0, 0.0)" style="fill-opacity:1.0;fill:url(#nasf);fill-rule:nonzero">
            <path d="M -208.099,72.714 C -218.97299999999998,4.804000000000002 -134.645,-41.28600000000001 -114.248,-75.147 C -127.16300000000001,-110.97300000000001 -125.37100000000001,-163.221 -113.284,-186.368 C -133.225,-165.57 -169.448,-118.713 -189.733,-76.23 C -198.726,-57.395 -208.021,-34.699 -212.034,-6.913 C -215.337,15.954 -215.063,42.266999999999996 -208.099,72.714 Z" id="path_7" inkscape:label="Path 1" style="fill-opacity:1.0;fill:url(#radialGradient_8);fill-rule:nonzero"/>
         </g>
      </g>
      <g inkscape:groupmode="layer" id="bok_2" inkscape:label="bok 2" transform="matrix(1.0, 0.0, 0.0, 1.0, 0.0, 0.0)" style="">
         <g id="g_9" inkscape:label="Group 1" transform="matrix(1.0, 0.0, 0.0, 1.0, 0.0, 0.0)" style="fill-opacity:1.0;fill:url(#wht);fill-rule:nonzero">
            <path d="M 208.176,72.714 C 219.04999999999998,4.804000000000002 145.5,-48.50000000000001 117.325,-75.147 C 131.565,-114.65 123.726,-169.736 111.363,-186.868 C 132.25,-165.0 168.5,-122.75 190.31,-78.73 C 207.202,-44.637 223.60199999999998,5.271000000000001 208.176,72.714 Z" id="path_10" inkscape:label="Path 1" style="fill-opacity:1.0;fill:url(#radialGradient_11);fill-rule:nonzero"/>
         </g>
      </g>
      <g inkscape:groupmode="layer" id="line" inkscape:label="line" transform="matrix(1.0, 0.0, 0.0, 1.0, 0.0, 0.0)" style="">
         <g id="g_12" inkscape:label="Group 1" transform="matrix(1.0, 0.0, 0.0, 1.0, 0.0, 0.0)" style="stroke:url(#jsdgq);stroke-opacity:1.0;stroke-width:8.0;stroke-miterlimit:0;stroke-linecap:round;stroke-linejoin:round">
            <path d="M 189.56,-80.459 C 170.043,-121.333 123.196,-174.59799999999998 112.363,-186.236 C 112.363,-186.236 -113.133,-185.721 -113.133,-185.721 C -113.133,-185.721 -167.199,-125.417 -188.08,-83.709 C -230.25,0.5210000000000008 -207.0,69.5 -200.139,83.891 C -209.095,-86.67899999999999 210.5,-84.49999999999999 201.12,83.391 C 204.542,75.31400000000001 232.547,9.570999999999998 189.56,-80.459 Z" id="path_13" inkscape:label="Path 1" style=""/>
         </g>
      </g>
   </g>
   <g inkscape:groupmode="layer" id="plsh" inkscape:label="plsh" transform="matrix(1.0, 0.0, 0.0, 1.0, 255.99999999999997, 255.0)" opacity="0.5" style="">
      <g id="g_14" inkscape:label="Group 1" transform="matrix(1.0, 0.0, 0.0, 1.0, 0.0, 0.0)" style="fill-opacity:1.0;fill:url(#bdaab);fill-rule:nonzero">
         <path d="M 112.451,-185.485 C 126.52,-165.488 125.5,-93.89699999999999 117.325,-75.044 C 117.325,-75.044 -114.454,-74.647 -114.454,-74.647 C -127.25,-111.0 -127.265,-165.37099999999998 -113.196,-185.368 C -113.196,-185.368 112.451,-185.485 112.451,-185.485 Z" id="path_15" inkscape:label="Path 1" style="fill-opacity:1.0;fill:url(#radialGradient_16);fill-rule:nonzero"/>
      </g>
      <g inkscape:groupmode="layer" id="line_3" inkscape:label="line 3" transform="matrix(1.0, 0.0, 0.0, 1.0, 0.0, 1.0)" style="">
         <g id="g_17" inkscape:label="Group 1" transform="matrix(1.0, 0.0, 0.0, 1.0, 0.0, 0.0)" style="stroke:rgb(188, 129, 38);stroke-opacity:1.0;stroke-width:8.0;stroke-miterlimit:0;stroke-linecap:round;stroke-linejoin:round">
            <path d="M -113.196,-185.368 C -113.196,-185.368 112.451,-185.485 112.451,-185.485 " id="path_18" inkscape:label="Path 1" style=""/>
         </g>
      </g>
      <g inkscape:groupmode="layer" id="logo" inkscape:label="logo" transform="matrix(1.0, 0.0, 0.0, 1.0, 0.0, -10.000000000000014)" style="">
         <g inkscape:groupmode="layer" id="logo_b" inkscape:label="logo_b" transform="matrix(1.0, 0.0, 0.0, 1.0, 0.0, 0.0)" style="">
            <g id="g_19" inkscape:label="Group 1" transform="matrix(1.0, 0.0, 0.0, 1.0, 0.0, 0.0)" style="fill-opacity:1.0;fill:url(#wyer);fill-rule:nonzero">
               <path d="M 31.271,-151.837 C 31.129,-153.14499999999998 30.274,-155.183 25.658,-154.226 C 18.661,-152.775 -1.740000000000002,-145.317 -38.662,-131.577 C -41.941,-130.464 -43.659000000000006,-129.371 -43.819,-128.299 C -43.948,-127.43 -43.739000000000004,-119.589 -43.819,-119.054 C -44.125,-116.99600000000001 -40.684,-116.347 -36.355,-115.125 C -32.82599999999999,-114.129 -28.076999999999998,-112.962 -25.607,-112.91 C -23.366,-112.863 -20.863,-113.652 -18.097,-115.277 C -13.240000000000002,-118.08200000000001 -8.989,-122.52900000000001 -5.341,-124.62 C -5.801,-124.251 -6.225,-123.898 -6.225,-123.898 C -8.597999999999999,-121.789 -11.165000000000001,-120.179 -11.284,-118.367 C -11.324,-117.763 -11.273,-109.655 -11.288,-109.039 C -11.316,-107.893 -10.356,-106.664 -7.745,-105.174 C -1.8449999999999998,-101.808 1.5889999999999995,-99.661 7.667,-96.212 C 11.551,-94.00800000000001 14.592999999999998,-91.397 18.612,-91.706 C 20.461,-91.848 22.375999999999998,-93.34 23.36,-97.799 C 23.837,-99.962 31.106,-133.783 31.288,-141.708 C 31.288,-141.708 31.271,-151.837 31.271,-151.837 Z" id="path_20" inkscape:label="Path 1" style="fill-opacity:1.0;fill:url(#radialGradient_21);fill-rule:nonzero"/>
            </g>
         </g>
         <g id="Path-3" inkscape:label="Path-3" transform="matrix(1.0, 0.0, 0.0, 1.0, 0.0, 0.0)" style="fill-opacity:1.0;fill:url(#jw);fill-rule:nonzero">
            <path d="M -38.662,-131.577 C -1.740000000000002,-145.317 18.661,-152.775 25.658,-154.226 C 31.672,-155.473 31.304,-151.63400000000001 31.288,-150.953 C 31.106,-143.028 23.837,-109.208 23.36,-107.045 C 20.9,-95.896 12.543,-102.689 7.666,-105.457 C 1.588,-108.90599999999999 -1.8449999999999998,-111.053 -7.745,-114.419 C -14.564,-118.309 -10.129,-120.428 -6.225,-123.898 C -5.4079999999999995,-124.624 6.091,-133.594 10.853,-137.808 C 14.112,-140.69199999999998 13.731,-142.59199999999998 7.769,-139.297 C 3.385,-136.875 -5.237000000000002,-131.95 -18.097,-124.523 C -20.863,-122.898 -23.366,-122.108 -25.607,-122.155 C -28.076999999999998,-122.20700000000001 -32.82599999999999,-123.375 -36.355,-124.371 C -36.355,-124.371 -51.447,-127.236 -38.662,-131.577 Z" id="path_22" inkscape:label="Path 1" style="fill-opacity:1.0;fill:url(#linearGradient_23);fill-rule:nonzero"/>
         </g>
      </g>
   </g>
   <g inkscape:groupmode="layer" id="frnt_5" inkscape:label="frnt 5" transform="matrix(1.0, 0.0, 0.0, 1.0, 255.941, 256.0)" style="">
      <g id="g_24" inkscape:label="Group 1" transform="matrix(1.0, 0.0, 0.0, 1.0, 0.0, 0.0)" style="fill-opacity:0.0;fill:rgb(253, 246, 189);fill-rule:nonzero;stroke:rgb(149, 91, 30);stroke-opacity:1.0;stroke-width:8.0;stroke-miterlimit:0;stroke-linecap:round;stroke-linejoin:round">
         <path d="M -116.437,-75.794 C -129.484,-62.747 -155.077,-44.097 -176.05,-20.431 C -197.02200000000002,3.2360000000000007 -213.37400000000002,31.919000000000004 -207.937,65.034 C -202.139,100.351 -170.135,128.343 -129.585,147.505 C -89.03500000000001,166.667 -39.94,177 0.04,177 C 80.0,177 196.696,135.668 208.293,65.034 C 219.167,-1.195999999999998 141.102,-50.03399999999999 115.342,-75.794 C 115.342,-75.794 -116.437,-75.794 -116.437,-75.794 Z&#10;M 163.059,54.75 C 163.059,109.564 90.30499999999999,154 0.559,154 C -89.187,154 -161.941,109.564 -161.941,54.75 C -161.941,-0.06400000000000006 -89.187,-44.5 0.559,-44.5 C 90.30499999999999,-44.5 163.059,-0.06400000000000006 163.059,54.75 Z" id="path_25" inkscape:label="Path 1" style="fill-opacity:0.0;fill:rgb(253, 246, 189);fill-rule:nonzero"/>
      </g>
   </g>
   <g inkscape:groupmode="layer" id="frnt_6" inkscape:label="frnt 6" transform="matrix(1.0, 0.0, 0.0, 1.0, 255.941, 256.0)" style="">
      <g id="g_26" inkscape:label="Group 1" transform="matrix(1.0, 0.0, 0.0, 1.0, 0.0, 0.0)" style="stroke:url(#gasdga);stroke-opacity:1.0;stroke-width:8.1;stroke-miterlimit:0;stroke-linecap:round;stroke-linejoin:round">
         <path d="M -116.437,-75.794 C -129.484,-62.747 -155.077,-44.097 -176.05,-20.431 C -197.02200000000002,3.2360000000000007 -213.37400000000002,31.919000000000004 -207.937,65.034 C -202.139,100.351 -170.135,128.343 -129.585,147.505 C -89.03500000000001,166.667 -39.94,177 0.04,177 C 80.0,177 196.696,135.668 208.293,65.034 C 219.167,-1.195999999999998 141.102,-50.03399999999999 115.342,-75.794 C 115.342,-75.794 -116.437,-75.794 -116.437,-75.794 Z" id="path_27" inkscape:label="Path 1" style=""/>
      </g>
   </g>
   <g inkscape:groupmode="layer" id="frnt_7" inkscape:label="frnt 7" transform="matrix(1.0, 0.0, 0.0, 1.0, 255.941, 256.0)" style="">
      <g id="g_28" inkscape:label="Group 1" transform="matrix(1.0, 0.0, 0.0, 1.0, 0.0, 0.0)" style="stroke:url(#linearGradient_29);stroke-opacity:1.0;stroke-width:8.1;stroke-miterlimit:0;stroke-linecap:round;stroke-linejoin:round">
         <path d="M 163.059,54.75 C 163.059,109.564 90.30499999999999,154 0.559,154 C -89.187,154 -161.941,109.564 -161.941,54.75 C -161.941,-0.06400000000000006 -89.187,-44.5 0.559,-44.5 C 90.30499999999999,-44.5 163.059,-0.06400000000000006 163.059,54.75 Z" id="Path_2" inkscape:label="Path 2" style=""/>
      </g>
   </g>
   <g inkscape:groupmode="layer" id="circl" inkscape:label="circl" transform="matrix(1.0, 0.0, 0.0, 1.0, 256.0, 246.0)" style="">
      <g id="g_30" inkscape:label="Group 1" transform="matrix(1.0, 0.0, 0.0, 1.0, 0.0, 0.0)" style="fill-opacity:1.0;fill:url(#mwryj);fill-rule:nonzero">
         <path d="M 53.179,-125.757 C 53.179,-101.793 29.407,-82.367 0.082,-82.367 C -29.243,-82.367 -53.015,-101.793 -53.015,-125.757 C -53.015,-149.721 -29.243,-169.148 0.082,-169.148 C 29.407,-169.148 53.179,-149.721 53.179,-125.757 Z" id="path_31" inkscape:label="Path 1" style="fill-opacity:1.0;fill:url(#linearGradient_32);fill-rule:nonzero"/>
      </g>
   </g>
</svg>
