<?xml version="1.0" ?>
<svg xmlns:inkscape="http://www.inkscape.org/namespaces/inkscape" xmlns:sodipodi="http://sodipodi.sourceforge.net/DTD/sodipodi-0.dtd" xmlns="http://www.w3.org/2000/svg" width="512" height="512" viewBox="0 0 512 512" version="1.1" id="svg_1" sodipodi:docname="15" inkscape:export-xdpi="96" inkscape:export-ydpi="96" style="fill: none; stroke: none">
   <defs>
      <linearGradient x1="1828.923" y1="2020.653" x2="1862.401" y2="1967.208" id="linearGradient_3" inkscape:label="4853475984375987845" gradientUnits="userSpaceOnUse">
         <stop offset="44.3%" stop-color="rgb(128, 93, 75)" stop-opacity="1"/>
         <stop offset="54.6%" stop-color="rgb(148, 116, 95)" stop-opacity="1"/>
         <stop offset="73.0%" stop-color="rgb(168, 138, 115)" stop-opacity="1"/>
      </linearGradient>
      <linearGradient x1="5.396" y1="150.434" x2="3.711" y2="-146.011" id="linearGradient_9" inkscape:label="2323435345" gradientUnits="userSpaceOnUse">
         <stop offset="21.3%" stop-color="rgb(255, 255, 176)" stop-opacity="0"/>
         <stop offset="39.900000000000006%" stop-color="rgb(255, 255, 176)" stop-opacity="0.5"/>
         <stop offset="73.0%" stop-color="rgb(255, 255, 176)" stop-opacity="1"/>
      </linearGradient>
      <linearGradient x1="-0.38" y1="122.896" x2="-0.38" y2="-21.166" id="linearGradient_11" inkscape:label="905604596456" gradientUnits="userSpaceOnUse">
         <stop offset="5.4%" stop-color="rgb(27, 3, 6)" stop-opacity="1"/>
         <stop offset="52.7%" stop-color="rgb(27, 3, 6)" stop-opacity="0.5"/>
         <stop offset="100%" stop-color="rgb(27, 3, 6)" stop-opacity="0"/>
      </linearGradient>
      <linearGradient x1="-0.38" y1="122.896" x2="-0.38" y2="-21.166" id="linearGradient_13" inkscape:label="905604596456" gradientUnits="userSpaceOnUse">
         <stop offset="5.4%" stop-color="rgb(27, 3, 6)" stop-opacity="1"/>
         <stop offset="52.7%" stop-color="rgb(27, 3, 6)" stop-opacity="0.5"/>
         <stop offset="100%" stop-color="rgb(27, 3, 6)" stop-opacity="0"/>
      </linearGradient>
      <linearGradient x1="5.396" y1="150.434" x2="3.711" y2="-146.011" id="linearGradient_21" inkscape:label="45345fsdfs" gradientUnits="userSpaceOnUse">
         <stop offset="44.3%" stop-color="rgb(92, 13, 0)" stop-opacity="1"/>
         <stop offset="54.6%" stop-color="rgb(147, 49, 0)" stop-opacity="1"/>
         <stop offset="73.0%" stop-color="rgb(201, 86, 0)" stop-opacity="1"/>
      </linearGradient>
      <linearGradient x1="5.396" y1="150.434" x2="3.711" y2="-146.011" id="graddasdasd" inkscape:label="graddasdasd" gradientUnits="userSpaceOnUse">
         <stop offset="44.3%" stop-color="rgb(92, 13, 0)" stop-opacity="1"/>
         <stop offset="54.6%" stop-color="rgb(147, 49, 0)" stop-opacity="1"/>
         <stop offset="73.0%" stop-color="rgb(201, 86, 0)" stop-opacity="1"/>
      </linearGradient>
      <linearGradient x1="5.396" y1="150.434" x2="3.711" y2="-146.011" id="asdadfsdfafsdasdasd" inkscape:label="asdadfsdfafsdasdasd" gradientUnits="userSpaceOnUse">
         <stop offset="19.900000000000002%" stop-color="rgb(255, 109, 0)" stop-opacity="1"/>
         <stop offset="44.4%" stop-color="rgb(255, 157, 0)" stop-opacity="1"/>
         <stop offset="63.3%" stop-color="rgb(255, 205, 0)" stop-opacity="1"/>
      </linearGradient>
      <linearGradient x1="5.396" y1="150.434" x2="3.711" y2="-146.011" id="linearGradient_26" inkscape:label="asdadfsdfafsdasdasd" gradientUnits="userSpaceOnUse">
         <stop offset="19.900000000000002%" stop-color="rgb(255, 109, 0)" stop-opacity="1"/>
         <stop offset="44.4%" stop-color="rgb(255, 157, 0)" stop-opacity="1"/>
         <stop offset="63.3%" stop-color="rgb(255, 205, 0)" stop-opacity="1"/>
      </linearGradient>
      <linearGradient x1="-60.676" y1="-166.67" x2="-73.739" y2="128.911" id="qrwerwerwerwrwer" inkscape:label="qrwerwerwerwrwer" gradientUnits="userSpaceOnUse">
         <stop offset="0%" stop-color="rgb(22, 3, 0)" stop-opacity="1"/>
         <stop offset="33.4%" stop-color="rgb(24, 2, 0)" stop-opacity="1"/>
         <stop offset="66.9%" stop-color="rgb(27, 0, 1)" stop-opacity="1"/>
      </linearGradient>
      <linearGradient x1="-60.676" y1="-166.67" x2="-73.739" y2="128.911" id="qweqweqrrqw" inkscape:label="qweqweqrrqw" gradientUnits="userSpaceOnUse">
         <stop offset="0%" stop-color="rgb(151, 50, 33)" stop-opacity="1"/>
         <stop offset="33.4%" stop-color="rgb(103, 29, 21)" stop-opacity="1"/>
         <stop offset="66.9%" stop-color="rgb(55, 8, 9)" stop-opacity="1"/>
      </linearGradient>
      <linearGradient x1="-60.676" y1="-166.67" x2="-73.739" y2="128.911" id="rererwerwerwe" inkscape:label="rererwerwerwe" gradientUnits="userSpaceOnUse">
         <stop offset="0%" stop-color="rgb(22, 3, 0)" stop-opacity="1"/>
         <stop offset="33.4%" stop-color="rgb(24, 2, 0)" stop-opacity="1"/>
         <stop offset="66.9%" stop-color="rgb(27, 0, 1)" stop-opacity="1"/>
      </linearGradient>
      <linearGradient x1="-60.676" y1="-166.67" x2="-73.739" y2="128.911" id="rererererere" inkscape:label="rererererere" gradientUnits="userSpaceOnUse">
         <stop offset="0%" stop-color="rgb(151, 50, 33)" stop-opacity="1"/>
         <stop offset="33.4%" stop-color="rgb(103, 29, 21)" stop-opacity="1"/>
         <stop offset="66.9%" stop-color="rgb(55, 8, 9)" stop-opacity="1"/>
      </linearGradient>
      <linearGradient x1="177.129" y1="-1186.791" x2="146.066" y2="-1034.209" id="rrrrrrrrrrrrrrrrrr" inkscape:label="rrrrrrrrrrrrrrrrrr" gradientUnits="userSpaceOnUse">
         <stop offset="0%" stop-color="rgb(151, 50, 33)" stop-opacity="1"/>
         <stop offset="33.4%" stop-color="rgb(103, 29, 21)" stop-opacity="1"/>
         <stop offset="66.9%" stop-color="rgb(55, 8, 9)" stop-opacity="1"/>
      </linearGradient>
      <radialGradient cx="0.592" cy="2.827" r="248.1522498406976" fx="0.592" fy="2.827" id="radialGradient_37" inkscape:label="56564546456456456" gradientUnits="userSpaceOnUse">
         <stop offset="0%" stop-color="rgb(255, 255, 255)" stop-opacity="1"/>
         <stop offset="50.0%" stop-color="rgb(191, 255, 253)" stop-opacity="1"/>
         <stop offset="100%" stop-color="rgb(127, 255, 250)" stop-opacity="1"/>
      </radialGradient>
      <radialGradient cx="0.592" cy="2.827" r="248.1522498406976" fx="0.592" fy="2.827" id="radialGradient_39" inkscape:label="56564546456456456" gradientUnits="userSpaceOnUse">
         <stop offset="0%" stop-color="rgb(255, 255, 255)" stop-opacity="1"/>
         <stop offset="50.0%" stop-color="rgb(191, 255, 253)" stop-opacity="1"/>
         <stop offset="100%" stop-color="rgb(127, 255, 250)" stop-opacity="1"/>
      </radialGradient>
      <linearGradient x1="5.396" y1="150.434" x2="3.711" y2="-146.011" id="linearGradient_43" inkscape:label="asdadfsdfafsdasdasd" gradientUnits="userSpaceOnUse">
         <stop offset="19.900000000000002%" stop-color="rgb(255, 109, 0)" stop-opacity="1"/>
         <stop offset="44.4%" stop-color="rgb(255, 157, 0)" stop-opacity="1"/>
         <stop offset="63.3%" stop-color="rgb(255, 205, 0)" stop-opacity="1"/>
      </linearGradient>
      <linearGradient x1="5.396" y1="150.434" x2="3.711" y2="-146.011" id="linearGradient_45" inkscape:label="asdadfsdfafsdasdasd" gradientUnits="userSpaceOnUse">
         <stop offset="19.900000000000002%" stop-color="rgb(255, 109, 0)" stop-opacity="1"/>
         <stop offset="44.4%" stop-color="rgb(255, 157, 0)" stop-opacity="1"/>
         <stop offset="63.3%" stop-color="rgb(255, 205, 0)" stop-opacity="1"/>
      </linearGradient>
      <linearGradient x1="-60.676" y1="-166.67" x2="-73.739" y2="128.911" id="linearGradient_48" inkscape:label="qrwerwerwerwrwer" gradientUnits="userSpaceOnUse">
         <stop offset="0%" stop-color="rgb(22, 3, 0)" stop-opacity="1"/>
         <stop offset="33.4%" stop-color="rgb(24, 2, 0)" stop-opacity="1"/>
         <stop offset="66.9%" stop-color="rgb(27, 0, 1)" stop-opacity="1"/>
      </linearGradient>
      <linearGradient x1="-60.676" y1="-166.67" x2="-73.739" y2="128.911" id="linearGradient_52" inkscape:label="qweqweqrrqw" gradientUnits="userSpaceOnUse">
         <stop offset="0%" stop-color="rgb(151, 50, 33)" stop-opacity="1"/>
         <stop offset="33.4%" stop-color="rgb(103, 29, 21)" stop-opacity="1"/>
         <stop offset="66.9%" stop-color="rgb(55, 8, 9)" stop-opacity="1"/>
      </linearGradient>
      <linearGradient x1="-60.676" y1="-166.67" x2="-73.739" y2="128.911" id="linearGradient_57" inkscape:label="rererwerwerwe" gradientUnits="userSpaceOnUse">
         <stop offset="0%" stop-color="rgb(22, 3, 0)" stop-opacity="1"/>
         <stop offset="33.4%" stop-color="rgb(24, 2, 0)" stop-opacity="1"/>
         <stop offset="66.9%" stop-color="rgb(27, 0, 1)" stop-opacity="1"/>
      </linearGradient>
      <linearGradient x1="-60.676" y1="-166.67" x2="-73.739" y2="128.911" id="linearGradient_61" inkscape:label="rererererere" gradientUnits="userSpaceOnUse">
         <stop offset="0%" stop-color="rgb(151, 50, 33)" stop-opacity="1"/>
         <stop offset="33.4%" stop-color="rgb(103, 29, 21)" stop-opacity="1"/>
         <stop offset="66.9%" stop-color="rgb(55, 8, 9)" stop-opacity="1"/>
      </linearGradient>
      <linearGradient x1="177.129" y1="-1186.791" x2="146.066" y2="-1034.209" id="linearGradient_65" inkscape:label="rrrrrrrrrrrrrrrrrr" gradientUnits="userSpaceOnUse">
         <stop offset="0%" stop-color="rgb(151, 50, 33)" stop-opacity="1"/>
         <stop offset="33.4%" stop-color="rgb(103, 29, 21)" stop-opacity="1"/>
         <stop offset="66.9%" stop-color="rgb(55, 8, 9)" stop-opacity="1"/>
      </linearGradient>
      <linearGradient x1="5.396" y1="150.434" x2="3.711" y2="-146.011" id="linearGradient_69" inkscape:label="asdadfsdfafsdasdasd" gradientUnits="userSpaceOnUse">
         <stop offset="19.900000000000002%" stop-color="rgb(255, 109, 0)" stop-opacity="1"/>
         <stop offset="44.4%" stop-color="rgb(255, 157, 0)" stop-opacity="1"/>
         <stop offset="63.3%" stop-color="rgb(255, 205, 0)" stop-opacity="1"/>
      </linearGradient>
      <linearGradient x1="5.396" y1="150.434" x2="3.711" y2="-146.011" id="linearGradient_71" inkscape:label="asdadfsdfafsdasdasd" gradientUnits="userSpaceOnUse">
         <stop offset="19.900000000000002%" stop-color="rgb(255, 109, 0)" stop-opacity="1"/>
         <stop offset="44.4%" stop-color="rgb(255, 157, 0)" stop-opacity="1"/>
         <stop offset="63.3%" stop-color="rgb(255, 205, 0)" stop-opacity="1"/>
      </linearGradient>
      <linearGradient x1="-60.676" y1="-166.67" x2="-73.739" y2="128.911" id="linearGradient_74" inkscape:label="qrwerwerwerwrwer" gradientUnits="userSpaceOnUse">
         <stop offset="0%" stop-color="rgb(22, 3, 0)" stop-opacity="1"/>
         <stop offset="33.4%" stop-color="rgb(24, 2, 0)" stop-opacity="1"/>
         <stop offset="66.9%" stop-color="rgb(27, 0, 1)" stop-opacity="1"/>
      </linearGradient>
      <linearGradient x1="-60.676" y1="-166.67" x2="-73.739" y2="128.911" id="linearGradient_78" inkscape:label="qweqweqrrqw" gradientUnits="userSpaceOnUse">
         <stop offset="0%" stop-color="rgb(151, 50, 33)" stop-opacity="1"/>
         <stop offset="33.4%" stop-color="rgb(103, 29, 21)" stop-opacity="1"/>
         <stop offset="66.9%" stop-color="rgb(55, 8, 9)" stop-opacity="1"/>
      </linearGradient>
      <linearGradient x1="-60.676" y1="-166.67" x2="-73.739" y2="128.911" id="linearGradient_83" inkscape:label="rererwerwerwe" gradientUnits="userSpaceOnUse">
         <stop offset="0%" stop-color="rgb(22, 3, 0)" stop-opacity="1"/>
         <stop offset="33.4%" stop-color="rgb(24, 2, 0)" stop-opacity="1"/>
         <stop offset="66.9%" stop-color="rgb(27, 0, 1)" stop-opacity="1"/>
      </linearGradient>
      <linearGradient x1="-60.676" y1="-166.67" x2="-73.739" y2="128.911" id="linearGradient_87" inkscape:label="rererererere" gradientUnits="userSpaceOnUse">
         <stop offset="0%" stop-color="rgb(151, 50, 33)" stop-opacity="1"/>
         <stop offset="33.4%" stop-color="rgb(103, 29, 21)" stop-opacity="1"/>
         <stop offset="66.9%" stop-color="rgb(55, 8, 9)" stop-opacity="1"/>
      </linearGradient>
      <linearGradient x1="177.129" y1="-1186.791" x2="146.066" y2="-1034.209" id="linearGradient_91" inkscape:label="rrrrrrrrrrrrrrrrrr" gradientUnits="userSpaceOnUse">
         <stop offset="0%" stop-color="rgb(151, 50, 33)" stop-opacity="1"/>
         <stop offset="33.4%" stop-color="rgb(103, 29, 21)" stop-opacity="1"/>
         <stop offset="66.9%" stop-color="rgb(55, 8, 9)" stop-opacity="1"/>
      </linearGradient>
   </defs>
   <sodipodi:namedview inkscape:pagecheckerboard="true" borderlayer="true" bordercolor="#666666" pagecolor="#ffffff"/>
   <g inkscape:groupmode="layer" id="center" inkscape:label="center" transform="matrix(1.0, 0.0, 0.0, 1.0, 207.0, 166.5)" opacity="1">
      <g inkscape:groupmode="layer" id="stick" inkscape:label="stick" transform="matrix(1.0, 0.0, 0.0, 1.0, -207.0, -166.5)" style="">
         <g id="Group_3" inkscape:label="Group 3" transform="matrix(1.0, 0.0, 0.0, 1.0, 328.91, 334.569)" style="fill-opacity:1.0;fill:rgb(214, 184, 154);fill-rule:nonzero">
            <path d="M 114.154,149.869 C 114.154,149.869 108.379,154.078 108.379,154.078 C 104.03,157.247 97.935,156.29 94.766,151.941 C 94.766,151.941 -118.16,-140.263 -118.16,-140.263 C -118.16,-140.263 -96.636,-155.947 -96.636,-155.947 C -96.636,-155.947 116.29,136.257 116.29,136.257 C 119.459,140.606 118.503,146.7 114.154,149.869 Z" id="Path_1" inkscape:label="Path 1" style="fill-opacity:1.0;fill:rgb(214, 184, 154);fill-rule:nonzero"/>
         </g>
         <g id="Group_2" inkscape:label="Group 2" transform="matrix(1.0, 0.0, 0.0, 1.0, 328.91, 334.569)" style="stroke:url(#linearGradient_3);stroke-opacity:1.0;stroke-width:18.0;stroke-miterlimit:0;stroke-linecap:round;stroke-linejoin:round">
            <path d="M 114.154,149.869 C 114.154,149.869 108.379,154.078 108.379,154.078 C 104.03,157.247 97.935,156.29 94.766,151.941 C 94.766,151.941 -118.16,-140.263 -118.16,-140.263 C -118.16,-140.263 -96.636,-155.947 -96.636,-155.947 C -96.636,-155.947 116.29,136.257 116.29,136.257 C 119.459,140.606 118.503,146.7 114.154,149.869 Z" id="path_2" inkscape:label="Path 1" style=""/>
         </g>
         <g id="Group_1" inkscape:label="Group 1" transform="matrix(1.0, 0.0, 0.0, 1.0, 290.599, 279.503)" opacity="0.49" style="fill-opacity:1.0;fill:rgb(119, 88, 80);fill-rule:nonzero;stroke:rgb(119, 88, 80);stroke-opacity:1.0;stroke-width:18.0;stroke-miterlimit:0;stroke-linecap:round;stroke-linejoin:round">
            <path d="M 7.074,34.088 C 7.074,34.088 -28.715,-15.028 -28.715,-15.028 C -28.715,-15.028 -28.715,-32.498 -28.715,-32.498 C -28.715,-32.498 -9.645,-34.088 -9.645,-34.088 C -9.645,-34.088 28.715,18.557 28.715,18.557 C 19.729,29.872999999999998 7.074,34.088 7.074,34.088 Z" id="path_4" inkscape:label="Path 1" style="fill-opacity:1.0;fill:rgb(119, 88, 80);fill-rule:nonzero"/>
         </g>
      </g>
      <g inkscape:groupmode="layer" id="patch" inkscape:label="patch" transform="matrix(1.0, 0.0, 0.0, 1.0, 0.382, 1.577)" style="">
         <g id="g_5" inkscape:label="Group 1" transform="matrix(1.0, 0.0, 0.0, 1.0, 0.0, 0.0)" style="fill-opacity:1.0;fill:rgb(99, 35, 29);fill-rule:nonzero">
            <path d="M 146.086,-4.495 C 146.405,5.88 145.635,16.034999999999997 143.879,25.862 C 131.97899999999998,92.451 74.801,143.923 4.495,146.086 C -66.13499999999999,148.25900000000001 -126.599,99.94899999999998 -142.234,33.751 C -144.459,24.33 -145.77700000000002,14.547 -146.086,4.495 C -145.382,14.923000000000002 -144.522,23.889 -142.25,33.616 C -126.882,99.423 -65.543,148.327 4.755,146.164 C 76.514,143.956 131.618,92.924 143.95,25.939 C 145.511,17.459 146.36800000000002,6.172999999999999 146.086,-4.495 Z" id="Path_2" inkscape:label="Path 2" style="fill-opacity:1.0;fill:rgb(99, 35, 29);fill-rule:nonzero"/>
         </g>
         <g id="Shape_1" inkscape:label="Shape 1" transform="matrix(1.0, 0.0, 0.0, 1.0, 0.0, 0.0)" style="">
            <path d="M 147.163,-4.349 C 153.61800000000002,174.923 -124.382,214.923 -146.851,4.922 " id="path_6" inkscape:label="Path 1" style=""/>
         </g>
      </g>
      <g inkscape:groupmode="layer" id="bigshading" inkscape:label="bigshading" transform="matrix(1.0, 0.0, 0.0, 1.0, -207.0, -166.5)" style="">
         <g id="g_7" inkscape:label="Group 3" transform="matrix(1.0, 0.0, 0.0, 1.0, 207.382, 168.077)" opacity="0.5" style="stroke:url(#linearGradient_9);stroke-opacity:1.0;stroke-width:18.0;stroke-miterlimit:0;stroke-linecap:round;stroke-linejoin:round">
            <path d="M 128.5,-0.56 C 128.809,70.40899999999999 71.529,128.191 0.56,128.5 C -70.40899999999999,128.809 -128.191,71.529 -128.5,0.56 C -128.809,-70.40899999999999 -71.529,-128.191 -0.56,-128.5 C 70.40899999999999,-128.809 128.191,-71.529 128.5,-0.56 Z" id="path_8" inkscape:label="Path 1" style=""/>
         </g>
         <g id="g_10" inkscape:label="Group 2" transform="matrix(1.0, 0.0, 0.0, 1.0, 207.38, 192.104)" opacity="0.4" style="fill-opacity:1.0;fill:url(#linearGradient_11);fill-rule:nonzero">
            <path d="M 143.223,5.101 C 127.14300000000001,84.201 49.97399999999999,135.281 -29.126,119.201 C -108.226,103.11099999999999 -159.30599999999998,25.950999999999993 -143.226,-53.149 C -137.836,-79.659 -125.587,-103.019 -108.677,-121.759 C -119.037,-109.169 -126.587,-94.549 -130.387,-78.459 C -145.037,-16.459000000000003 -98.527,50.021 -26.517,62.631 C 45.49300000000001,75.241 120.624,40.085 133.393,-27.799 C 139.549,-60.525999999999996 128.994,-97.19900000000001 108.314,-122.159 C 138.42399999999998,-88.88900000000001 152.853,-42.239000000000004 143.223,5.101 Z" id="path_12" inkscape:label="Path 1" style="fill-opacity:1.0;fill:url(#linearGradient_13);fill-rule:nonzero"/>
         </g>
         <g id="g_14" inkscape:label="Group 1" transform="matrix(1.0, 0.0, 0.0, 1.0, 0.0, 0.0)" style="">
            <g id="g_15" inkscape:label="Group 2" transform="matrix(1.0, 0.0, 0.0, 1.0, 166.303, 62.433)" style="fill-opacity:1.0;fill:rgb(255, 255, 255);fill-rule:nonzero">
               <path d="M -2.408,-11.325 C -11.479999999999999,-7.777999999999999 -17.756,0.16699999999999982 -16.426,6.422 C -15.095999999999998,12.675999999999998 -6.664,14.872 2.408,11.325 C 11.479999999999999,7.777999999999999 17.756,-0.16699999999999982 16.426,-6.422 C 15.095999999999998,-12.675999999999998 6.664,-14.872 -2.408,-11.325 Z" id="path_16" inkscape:label="Path 1" style="fill-opacity:1.0;fill:rgb(255, 255, 255);fill-rule:nonzero"/>
            </g>
            <g id="g_17" inkscape:label="Group 1" transform="matrix(1.0, 0.0, 0.0, 1.0, 131.996, 85.258)" style="fill-opacity:1.0;fill:rgb(255, 255, 255);fill-rule:nonzero">
               <path d="M -1.106,-5.203 C -5.274,-3.5730000000000004 -8.158,0.07699999999999996 -7.547,2.951 C -6.936,5.825 -3.0620000000000003,6.833 1.106,5.203 C 5.274,3.5730000000000004 8.158,-0.07699999999999996 7.547,-2.951 C 6.936,-5.825 3.0620000000000003,-6.833 -1.106,-5.203 Z" id="path_18" inkscape:label="Path 1" style="fill-opacity:1.0;fill:rgb(255, 255, 255);fill-rule:nonzero"/>
            </g>
         </g>
      </g>
      <g inkscape:groupmode="layer" id="bigoutl_2" inkscape:label="bigoutl 2" transform="matrix(1.0, 0.0, 0.0, 1.0, 0.382, 1.577)" style="">
         <g id="g_19" inkscape:label="Group 1" transform="matrix(1.0, 0.0, 0.0, 1.0, 0.0, 0.0)" style="stroke:url(#linearGradient_21);stroke-opacity:1.0;stroke-width:18.0;stroke-miterlimit:0;stroke-linecap:round;stroke-linejoin:round">
            <path d="M 146.086,-4.495 C 146.405,5.88 145.635,16.035999999999998 143.879,25.862 C 131.97899999999998,92.451 74.801,143.923 4.495,146.086 C -66.134,148.25900000000001 -126.599,99.94899999999998 -142.234,33.751 C -144.459,24.33 -145.77700000000002,14.547 -146.086,4.495 C -146.405,-5.887999999999999 -145.634,-16.051000000000002 -143.875,-25.884 C -131.966,-92.462 -74.793,-143.923 -4.495,-146.086 C 67.264,-148.294 128.53099999999998,-98.39099999999999 142.95,-30.561 C 144.743,-22.127000000000002 145.811,-13.417000000000002 146.086,-4.495 Z" id="path_20" inkscape:label="Path 1" style=""/>
         </g>
         <g id="g_22" inkscape:label="Group 2" transform="matrix(1.0, 0.0, 0.0, 1.0, 0.0, 0.0)" style="stroke:url(#graddasdasd);stroke-opacity:1.0;stroke-width:18.0;stroke-miterlimit:0;stroke-linecap:round;stroke-linejoin:round">
            <path d="M 146.086,-4.495 C 146.405,5.88 145.635,16.035999999999998 143.879,25.862 C 131.97899999999998,92.451 74.801,143.923 4.495,146.086 C -66.134,148.25900000000001 -126.599,99.94899999999998 -142.234,33.751 C -144.459,24.33 -145.77700000000002,14.547 -146.086,4.495 C -146.405,-5.887999999999999 -145.634,-16.051000000000002 -143.875,-25.884 C -131.966,-92.462 -74.793,-143.923 -4.495,-146.086 C 67.264,-148.294 128.53099999999998,-98.39099999999999 142.95,-30.561 C 144.743,-22.127000000000002 145.811,-13.417000000000002 146.086,-4.495 Z" id="path_23" inkscape:label="Path 2" style=""/>
         </g>
      </g>
      <g inkscape:groupmode="layer" id="flip" inkscape:label="flip" transform="matrix(1.0, 0.0, 0.0, 1.0, 0.0, 0.0)" opacity="1">
         <g inkscape:groupmode="layer" id="centescale_down" inkscape:label="centescale down" transform="matrix(1.0, 0.0, 0.0, 1.0, 0.0, 0.0)" opacity="1">
            <g inkscape:groupmode="layer" id="Spinner" inkscape:label="Spinner" transform="matrix(1.0, 0.0, 0.0, 1.0, -150.0, -150.25)">
               <g inkscape:groupmode="layer" id="bigbase" inkscape:label="bigbase" transform="matrix(1.0, 0.0, 0.0, 1.0, 150.821, 150.077)" style="">
                  <g id="g_24" inkscape:label="Group 1" transform="matrix(1.0, 0.0, 0.0, 1.0, 0.0, 0.0)" style="fill-opacity:1.0;fill:url(#asdadfsdfafsdasdasd);fill-rule:nonzero">
                     <path d="M 143.224,29.126 C 127.13799999999999,108.226 49.97399999999999,159.31 -29.126,143.224 C -108.226,127.13799999999999 -159.31,49.97399999999999 -143.224,-29.126 C -127.13799999999999,-108.226 -49.97399999999999,-159.31 29.126,-143.224 C 108.226,-127.13799999999999 159.31,-49.97399999999999 143.224,29.126 Z" id="path_25" inkscape:label="Path 1" style="fill-opacity:1.0;fill:url(#linearGradient_26);fill-rule:nonzero"/>
                  </g>
               </g>
               <g inkscape:groupmode="layer" id="bigdetail" inkscape:label="bigdetail" transform="matrix(1.0, 0.0, 0.0, 1.0, -57.43899999999999, -18.0)" style="">
                  <g id="Group_6" inkscape:label="Group 6" transform="matrix(1.0, 0.0, 0.0, 1.0, 282.025, 193.749)" style="fill-opacity:1.0;fill:url(#qrwerwerwerwrwer);fill-rule:nonzero">
                     <g id="g_27" inkscape:label="Group 1" transform="matrix(1.0, 0.0, 0.0, 1.0, -282.0, -195.0)" style="">
                        <path d="M 207.382,168.077 C 207.382,168.077 299.245,162.294 332.838,245.245 C 332.838,245.245 368.28000000000003,211.413 352.716,152.312 C 352.716,152.312 296.987,121.344 207.382,168.077 Z&#10;M 325.577,86.961 C 325.577,86.961 252.77800000000002,68.853 207.382,168.077 C 207.382,168.077 179.216,84.307 236.508,24.853 C 236.508,24.853 279.473,28.552999999999997 325.577,86.961 Z&#10;M 63.85,147.633 C 63.85,147.633 129.28300000000002,221.024 207.382,168.077 C 207.382,168.077 197.894,248.272 88.373,252.902 C 88.373,252.902 46.97,195.76000000000002 63.85,147.633 Z&#10;M 271.345,299.489 C 271.345,299.489 286.641,211.386 207.382,168.077 C 207.382,168.077 235.272,270.012 140.677,298.157 C 140.677,298.157 208.74900000000002,327.019 271.345,299.489 Z&#10;M 173.182,24.58 C 173.182,24.58 123.11800000000001,90.585 207.382,168.077 C 207.382,168.077 86.397,158.50099999999998 90.655,79.88 C 90.655,79.88 126.12899999999999,38.911 173.182,24.58 Z" id="Path_10" inkscape:label="Path 10" style=""/>
                     </g>
                  </g>
                  <g id="Group_5" inkscape:label="Group 5" transform="matrix(1.0, 0.0, 0.0, 1.0, 282.025, 193.749)" style="fill-opacity:1.0;fill:url(#qweqweqrrqw);fill-rule:nonzero">
                     <g id="g_28" inkscape:label="Group 1" transform="matrix(1.0, 0.0, 0.0, 1.0, -282.0, -195.0)" style="">
                        <path d="M 207.382,168.077 C 207.382,168.077 299.245,162.294 332.838,245.245 C 332.838,245.245 368.28000000000003,211.413 352.716,152.312 C 352.716,152.312 296.987,121.344 207.382,168.077 Z&#10;M 325.577,86.961 C 325.577,86.961 252.77800000000002,68.853 207.382,168.077 C 207.382,168.077 179.216,84.307 236.508,24.853 C 236.508,24.853 279.473,28.552999999999997 325.577,86.961 Z&#10;M 63.85,147.633 C 63.85,147.633 129.28300000000002,221.024 207.382,168.077 C 207.382,168.077 197.894,248.272 88.373,252.902 C 88.373,252.902 46.97,195.76000000000002 63.85,147.633 Z&#10;M 271.345,299.489 C 271.345,299.489 286.641,211.386 207.382,168.077 C 207.382,168.077 235.272,270.012 140.677,298.157 C 140.677,298.157 208.74900000000002,327.019 271.345,299.489 Z&#10;M 173.182,24.58 C 173.182,24.58 123.11800000000001,90.585 207.382,168.077 C 207.382,168.077 86.397,158.50099999999998 90.655,79.88 C 90.655,79.88 126.12899999999999,38.911 173.182,24.58 Z" id="path_29" inkscape:label="Path 1" style=""/>
                     </g>
                  </g>
                  <g id="Group_7" inkscape:label="Group 7" transform="matrix(1.0, 0.0, 0.0, 1.0, 0.0, 0.0)" opacity="0.0" style="">
                     <g id="g_30" inkscape:label="Group 7" transform="matrix(1.0, 0.0, 0.0, 1.0, 282.025, 193.749)" style="fill-opacity:1.0;fill:url(#rererwerwerwe);fill-rule:nonzero">
                        <g id="g_31" inkscape:label="Group 1" transform="matrix(1.0, 0.0, 0.0, 1.0, -282.0, -195.0)" style="">
                           <path d="M 207.382,168.077 C 207.382,168.077 299.245,162.294 332.838,245.245 C 332.838,245.245 368.28000000000003,211.413 352.716,152.312 C 352.716,152.312 296.987,121.344 207.382,168.077 Z&#10;M 325.577,86.961 C 325.577,86.961 252.77800000000002,68.853 207.382,168.077 C 207.382,168.077 179.216,84.307 236.508,24.853 C 236.508,24.853 279.473,28.552999999999997 325.577,86.961 Z&#10;M 63.85,147.633 C 63.85,147.633 129.28300000000002,221.024 207.382,168.077 C 207.382,168.077 197.894,248.272 88.373,252.902 C 88.373,252.902 46.97,195.76000000000002 63.85,147.633 Z&#10;M 271.345,299.489 C 271.345,299.489 286.641,211.386 207.382,168.077 C 207.382,168.077 235.272,270.012 140.677,298.157 C 140.677,298.157 208.74900000000002,327.019 271.345,299.489 Z&#10;M 173.182,24.58 C 173.182,24.58 123.11800000000001,90.585 207.382,168.077 C 207.382,168.077 86.397,158.50099999999998 90.655,79.88 C 90.655,79.88 126.12899999999999,38.911 173.182,24.58 Z" id="path_32" inkscape:label="Path 10" style=""/>
                        </g>
                     </g>
                     <g id="Group_8" inkscape:label="Group 8" transform="matrix(1.0, 0.0, 0.0, 1.0, 282.025, 193.749)" style="fill-opacity:1.0;fill:url(#rererererere);fill-rule:nonzero">
                        <g id="g_33" inkscape:label="Group 1" transform="matrix(1.0, 0.0, 0.0, 1.0, -282.0, -195.0)" style="">
                           <path d="M 207.382,168.077 C 207.382,168.077 299.245,162.294 332.838,245.245 C 332.838,245.245 368.28000000000003,211.413 352.716,152.312 C 352.716,152.312 296.987,121.344 207.382,168.077 Z&#10;M 325.577,86.961 C 325.577,86.961 252.77800000000002,68.853 207.382,168.077 C 207.382,168.077 179.216,84.307 236.508,24.853 C 236.508,24.853 279.473,28.552999999999997 325.577,86.961 Z&#10;M 63.85,147.633 C 63.85,147.633 129.28300000000002,221.024 207.382,168.077 C 207.382,168.077 197.894,248.272 88.373,252.902 C 88.373,252.902 46.97,195.76000000000002 63.85,147.633 Z&#10;M 271.345,299.489 C 271.345,299.489 286.641,211.386 207.382,168.077 C 207.382,168.077 235.272,270.012 140.677,298.157 C 140.677,298.157 208.74900000000002,327.019 271.345,299.489 Z&#10;M 173.182,24.58 C 173.182,24.58 123.11800000000001,90.585 207.382,168.077 C 207.382,168.077 86.397,158.50099999999998 90.655,79.88 C 90.655,79.88 126.12899999999999,38.911 173.182,24.58 Z" id="path_34" inkscape:label="Path 1" style=""/>
                        </g>
                     </g>
                  </g>
                  <g id="g_35" inkscape:label="Group 1" transform="matrix(1.0, 0.0, 0.0, 1.0, 148.963, 96.328)" style="fill-opacity:1.0;fill:url(#rrrrrrrrrrrrrrrrrr);fill-rule:nonzero"/>
               </g>
            </g>
            <g inkscape:groupmode="layer" id="glow" inkscape:label="glow" transform="matrix(0.5354139499087581, -0.3672648024833062, -0.3678870263389158, -0.5363210538022072, -0.755, -2.877)" opacity="0.0" style="">
               <g id="g_36" inkscape:label="Group 1" transform="matrix(1.0, 0.0, 0.0, 1.0, 0.0, 0.0)" style="fill-opacity:1.0;fill:url(#radialGradient_37);fill-rule:nonzero">
                  <path d="M 245.016,-0.009 C 245.016,140.263 135.32999999999998,255.617 0.047,253.976 C -129.111,252.409 -241.114,139.29000000000002 -244.922,-0.009 C -248.755,-140.22799999999998 -135.246,-253.993 0.047,-253.993 C 135.34,-253.993 245.016,-140.28099999999998 245.016,-0.009 Z" id="path_38" inkscape:label="Path 1" style="fill-opacity:1.0;fill:url(#radialGradient_39);fill-rule:nonzero"/>
               </g>
            </g>
         </g>
         <g inkscape:groupmode="layer" id="centescale_up" inkscape:label="centescale up" transform="matrix(1.0, 0.0, 0.0, 1.0, 0.0, 0.0)" opacity="1">
            <g inkscape:groupmode="layer" id="g_40" inkscape:label="Spinner" transform="matrix(1.0, 0.0, 0.0, 1.0, -150.0, -150.25)">
               <g inkscape:groupmode="layer" id="g_41" inkscape:label="bigbase" transform="matrix(1.0, 0.0, 0.0, 1.0, 150.821, 150.077)" style="">
                  <g id="g_42" inkscape:label="Group 1" transform="matrix(1.0, 0.0, 0.0, 1.0, 0.0, 0.0)" style="fill-opacity:1.0;fill:url(#linearGradient_43);fill-rule:nonzero">
                     <path d="M 143.224,29.126 C 127.13799999999999,108.226 49.97399999999999,159.31 -29.126,143.224 C -108.226,127.13799999999999 -159.31,49.97399999999999 -143.224,-29.126 C -127.13799999999999,-108.226 -49.97399999999999,-159.31 29.126,-143.224 C 108.226,-127.13799999999999 159.31,-49.97399999999999 143.224,29.126 Z" id="path_44" inkscape:label="Path 1" style="fill-opacity:1.0;fill:url(#linearGradient_45);fill-rule:nonzero"/>
                  </g>
               </g>
               <g inkscape:groupmode="layer" id="g_46" inkscape:label="bigdetail" transform="matrix(1.0, 0.0, 0.0, 1.0, -57.43899999999999, -18.0)" style="">
                  <g id="g_47" inkscape:label="Group 6" transform="matrix(1.0, 0.0, 0.0, 1.0, 282.025, 193.749)" style="fill-opacity:1.0;fill:url(#linearGradient_48);fill-rule:nonzero">
                     <g id="g_49" inkscape:label="Group 1" transform="matrix(1.0, 0.0, 0.0, 1.0, -282.0, -195.0)" style="">
                        <path d="M 207.382,168.077 C 207.382,168.077 299.245,162.294 332.838,245.245 C 332.838,245.245 368.28000000000003,211.413 352.716,152.312 C 352.716,152.312 296.987,121.344 207.382,168.077 Z&#10;M 325.577,86.961 C 325.577,86.961 252.77800000000002,68.853 207.382,168.077 C 207.382,168.077 179.216,84.307 236.508,24.853 C 236.508,24.853 279.473,28.552999999999997 325.577,86.961 Z&#10;M 63.85,147.633 C 63.85,147.633 129.28300000000002,221.024 207.382,168.077 C 207.382,168.077 197.894,248.272 88.373,252.902 C 88.373,252.902 46.97,195.76000000000002 63.85,147.633 Z&#10;M 271.345,299.489 C 271.345,299.489 286.641,211.386 207.382,168.077 C 207.382,168.077 235.272,270.012 140.677,298.157 C 140.677,298.157 208.74900000000002,327.019 271.345,299.489 Z&#10;M 173.182,24.58 C 173.182,24.58 123.11800000000001,90.585 207.382,168.077 C 207.382,168.077 86.397,158.50099999999998 90.655,79.88 C 90.655,79.88 126.12899999999999,38.911 173.182,24.58 Z" id="path_50" inkscape:label="Path 10" style=""/>
                     </g>
                  </g>
                  <g id="g_51" inkscape:label="Group 5" transform="matrix(1.0, 0.0, 0.0, 1.0, 282.025, 193.749)" style="fill-opacity:1.0;fill:url(#linearGradient_52);fill-rule:nonzero">
                     <g id="g_53" inkscape:label="Group 1" transform="matrix(1.0, 0.0, 0.0, 1.0, -282.0, -195.0)" style="">
                        <path d="M 207.382,168.077 C 207.382,168.077 299.245,162.294 332.838,245.245 C 332.838,245.245 368.28000000000003,211.413 352.716,152.312 C 352.716,152.312 296.987,121.344 207.382,168.077 Z&#10;M 325.577,86.961 C 325.577,86.961 252.77800000000002,68.853 207.382,168.077 C 207.382,168.077 179.216,84.307 236.508,24.853 C 236.508,24.853 279.473,28.552999999999997 325.577,86.961 Z&#10;M 63.85,147.633 C 63.85,147.633 129.28300000000002,221.024 207.382,168.077 C 207.382,168.077 197.894,248.272 88.373,252.902 C 88.373,252.902 46.97,195.76000000000002 63.85,147.633 Z&#10;M 271.345,299.489 C 271.345,299.489 286.641,211.386 207.382,168.077 C 207.382,168.077 235.272,270.012 140.677,298.157 C 140.677,298.157 208.74900000000002,327.019 271.345,299.489 Z&#10;M 173.182,24.58 C 173.182,24.58 123.11800000000001,90.585 207.382,168.077 C 207.382,168.077 86.397,158.50099999999998 90.655,79.88 C 90.655,79.88 126.12899999999999,38.911 173.182,24.58 Z" id="path_54" inkscape:label="Path 1" style=""/>
                     </g>
                  </g>
                  <g id="g_55" inkscape:label="Group 7" transform="matrix(1.0, 0.0, 0.0, 1.0, 0.0, 0.0)" opacity="0.0" style="">
                     <g id="g_56" inkscape:label="Group 7" transform="matrix(1.0, 0.0, 0.0, 1.0, 282.025, 193.749)" style="fill-opacity:1.0;fill:url(#linearGradient_57);fill-rule:nonzero">
                        <g id="g_58" inkscape:label="Group 1" transform="matrix(1.0, 0.0, 0.0, 1.0, -282.0, -195.0)" style="">
                           <path d="M 207.382,168.077 C 207.382,168.077 299.245,162.294 332.838,245.245 C 332.838,245.245 368.28000000000003,211.413 352.716,152.312 C 352.716,152.312 296.987,121.344 207.382,168.077 Z&#10;M 325.577,86.961 C 325.577,86.961 252.77800000000002,68.853 207.382,168.077 C 207.382,168.077 179.216,84.307 236.508,24.853 C 236.508,24.853 279.473,28.552999999999997 325.577,86.961 Z&#10;M 63.85,147.633 C 63.85,147.633 129.28300000000002,221.024 207.382,168.077 C 207.382,168.077 197.894,248.272 88.373,252.902 C 88.373,252.902 46.97,195.76000000000002 63.85,147.633 Z&#10;M 271.345,299.489 C 271.345,299.489 286.641,211.386 207.382,168.077 C 207.382,168.077 235.272,270.012 140.677,298.157 C 140.677,298.157 208.74900000000002,327.019 271.345,299.489 Z&#10;M 173.182,24.58 C 173.182,24.58 123.11800000000001,90.585 207.382,168.077 C 207.382,168.077 86.397,158.50099999999998 90.655,79.88 C 90.655,79.88 126.12899999999999,38.911 173.182,24.58 Z" id="path_59" inkscape:label="Path 10" style=""/>
                        </g>
                     </g>
                     <g id="g_60" inkscape:label="Group 8" transform="matrix(1.0, 0.0, 0.0, 1.0, 282.025, 193.749)" style="fill-opacity:1.0;fill:url(#linearGradient_61);fill-rule:nonzero">
                        <g id="g_62" inkscape:label="Group 1" transform="matrix(1.0, 0.0, 0.0, 1.0, -282.0, -195.0)" style="">
                           <path d="M 207.382,168.077 C 207.382,168.077 299.245,162.294 332.838,245.245 C 332.838,245.245 368.28000000000003,211.413 352.716,152.312 C 352.716,152.312 296.987,121.344 207.382,168.077 Z&#10;M 325.577,86.961 C 325.577,86.961 252.77800000000002,68.853 207.382,168.077 C 207.382,168.077 179.216,84.307 236.508,24.853 C 236.508,24.853 279.473,28.552999999999997 325.577,86.961 Z&#10;M 63.85,147.633 C 63.85,147.633 129.28300000000002,221.024 207.382,168.077 C 207.382,168.077 197.894,248.272 88.373,252.902 C 88.373,252.902 46.97,195.76000000000002 63.85,147.633 Z&#10;M 271.345,299.489 C 271.345,299.489 286.641,211.386 207.382,168.077 C 207.382,168.077 235.272,270.012 140.677,298.157 C 140.677,298.157 208.74900000000002,327.019 271.345,299.489 Z&#10;M 173.182,24.58 C 173.182,24.58 123.11800000000001,90.585 207.382,168.077 C 207.382,168.077 86.397,158.50099999999998 90.655,79.88 C 90.655,79.88 126.12899999999999,38.911 173.182,24.58 Z" id="path_63" inkscape:label="Path 1" style=""/>
                        </g>
                     </g>
                  </g>
                  <g id="g_64" inkscape:label="Group 1" transform="matrix(1.0, 0.0, 0.0, 1.0, 148.963, 96.328)" style="fill-opacity:1.0;fill:url(#linearGradient_65);fill-rule:nonzero"/>
               </g>
            </g>
            <g inkscape:groupmode="layer" id="g_66" inkscape:label="Spinner" transform="matrix(1.0, 0.0, 0.0, 1.0, -150.0, -150.25)">
               <g inkscape:groupmode="layer" id="g_67" inkscape:label="bigbase" transform="matrix(1.0, 0.0, 0.0, 1.0, 150.821, 150.077)" style="">
                  <g id="g_68" inkscape:label="Group 1" transform="matrix(1.0, 0.0, 0.0, 1.0, 0.0, 0.0)" style="fill-opacity:1.0;fill:url(#linearGradient_69);fill-rule:nonzero">
                     <path d="M 143.224,29.126 C 127.13799999999999,108.226 49.97399999999999,159.31 -29.126,143.224 C -108.226,127.13799999999999 -159.31,49.97399999999999 -143.224,-29.126 C -127.13799999999999,-108.226 -49.97399999999999,-159.31 29.126,-143.224 C 108.226,-127.13799999999999 159.31,-49.97399999999999 143.224,29.126 Z" id="path_70" inkscape:label="Path 1" style="fill-opacity:1.0;fill:url(#linearGradient_71);fill-rule:nonzero"/>
                  </g>
               </g>
               <g inkscape:groupmode="layer" id="g_72" inkscape:label="bigdetail" transform="matrix(1.0, 0.0, 0.0, 1.0, -57.43899999999999, -18.0)" style="">
                  <g id="g_73" inkscape:label="Group 6" transform="matrix(1.0, 0.0, 0.0, 1.0, 282.025, 193.749)" style="fill-opacity:1.0;fill:url(#linearGradient_74);fill-rule:nonzero">
                     <g id="g_75" inkscape:label="Group 1" transform="matrix(1.0, 0.0, 0.0, 1.0, -282.0, -195.0)" style="">
                        <path d="M 207.382,168.077 C 207.382,168.077 299.245,162.294 332.838,245.245 C 332.838,245.245 368.28000000000003,211.413 352.716,152.312 C 352.716,152.312 296.987,121.344 207.382,168.077 Z&#10;M 325.577,86.961 C 325.577,86.961 252.77800000000002,68.853 207.382,168.077 C 207.382,168.077 179.216,84.307 236.508,24.853 C 236.508,24.853 279.473,28.552999999999997 325.577,86.961 Z&#10;M 63.85,147.633 C 63.85,147.633 129.28300000000002,221.024 207.382,168.077 C 207.382,168.077 197.894,248.272 88.373,252.902 C 88.373,252.902 46.97,195.76000000000002 63.85,147.633 Z&#10;M 271.345,299.489 C 271.345,299.489 286.641,211.386 207.382,168.077 C 207.382,168.077 235.272,270.012 140.677,298.157 C 140.677,298.157 208.74900000000002,327.019 271.345,299.489 Z&#10;M 173.182,24.58 C 173.182,24.58 123.11800000000001,90.585 207.382,168.077 C 207.382,168.077 86.397,158.50099999999998 90.655,79.88 C 90.655,79.88 126.12899999999999,38.911 173.182,24.58 Z" id="path_76" inkscape:label="Path 10" style=""/>
                     </g>
                  </g>
                  <g id="g_77" inkscape:label="Group 5" transform="matrix(1.0, 0.0, 0.0, 1.0, 282.025, 193.749)" style="fill-opacity:1.0;fill:url(#linearGradient_78);fill-rule:nonzero">
                     <g id="g_79" inkscape:label="Group 1" transform="matrix(1.0, 0.0, 0.0, 1.0, -282.0, -195.0)" style="">
                        <path d="M 207.382,168.077 C 207.382,168.077 299.245,162.294 332.838,245.245 C 332.838,245.245 368.28000000000003,211.413 352.716,152.312 C 352.716,152.312 296.987,121.344 207.382,168.077 Z&#10;M 325.577,86.961 C 325.577,86.961 252.77800000000002,68.853 207.382,168.077 C 207.382,168.077 179.216,84.307 236.508,24.853 C 236.508,24.853 279.473,28.552999999999997 325.577,86.961 Z&#10;M 63.85,147.633 C 63.85,147.633 129.28300000000002,221.024 207.382,168.077 C 207.382,168.077 197.894,248.272 88.373,252.902 C 88.373,252.902 46.97,195.76000000000002 63.85,147.633 Z&#10;M 271.345,299.489 C 271.345,299.489 286.641,211.386 207.382,168.077 C 207.382,168.077 235.272,270.012 140.677,298.157 C 140.677,298.157 208.74900000000002,327.019 271.345,299.489 Z&#10;M 173.182,24.58 C 173.182,24.58 123.11800000000001,90.585 207.382,168.077 C 207.382,168.077 86.397,158.50099999999998 90.655,79.88 C 90.655,79.88 126.12899999999999,38.911 173.182,24.58 Z" id="path_80" inkscape:label="Path 1" style=""/>
                     </g>
                  </g>
                  <g id="g_81" inkscape:label="Group 7" transform="matrix(1.0, 0.0, 0.0, 1.0, 0.0, 0.0)" opacity="0.0" style="">
                     <g id="g_82" inkscape:label="Group 7" transform="matrix(1.0, 0.0, 0.0, 1.0, 282.025, 193.749)" style="fill-opacity:1.0;fill:url(#linearGradient_83);fill-rule:nonzero">
                        <g id="g_84" inkscape:label="Group 1" transform="matrix(1.0, 0.0, 0.0, 1.0, -282.0, -195.0)" style="">
                           <path d="M 207.382,168.077 C 207.382,168.077 299.245,162.294 332.838,245.245 C 332.838,245.245 368.28000000000003,211.413 352.716,152.312 C 352.716,152.312 296.987,121.344 207.382,168.077 Z&#10;M 325.577,86.961 C 325.577,86.961 252.77800000000002,68.853 207.382,168.077 C 207.382,168.077 179.216,84.307 236.508,24.853 C 236.508,24.853 279.473,28.552999999999997 325.577,86.961 Z&#10;M 63.85,147.633 C 63.85,147.633 129.28300000000002,221.024 207.382,168.077 C 207.382,168.077 197.894,248.272 88.373,252.902 C 88.373,252.902 46.97,195.76000000000002 63.85,147.633 Z&#10;M 271.345,299.489 C 271.345,299.489 286.641,211.386 207.382,168.077 C 207.382,168.077 235.272,270.012 140.677,298.157 C 140.677,298.157 208.74900000000002,327.019 271.345,299.489 Z&#10;M 173.182,24.58 C 173.182,24.58 123.11800000000001,90.585 207.382,168.077 C 207.382,168.077 86.397,158.50099999999998 90.655,79.88 C 90.655,79.88 126.12899999999999,38.911 173.182,24.58 Z" id="path_85" inkscape:label="Path 10" style=""/>
                        </g>
                     </g>
                     <g id="g_86" inkscape:label="Group 8" transform="matrix(1.0, 0.0, 0.0, 1.0, 282.025, 193.749)" style="fill-opacity:1.0;fill:url(#linearGradient_87);fill-rule:nonzero">
                        <g id="g_88" inkscape:label="Group 1" transform="matrix(1.0, 0.0, 0.0, 1.0, -282.0, -195.0)" style="">
                           <path d="M 207.382,168.077 C 207.382,168.077 299.245,162.294 332.838,245.245 C 332.838,245.245 368.28000000000003,211.413 352.716,152.312 C 352.716,152.312 296.987,121.344 207.382,168.077 Z&#10;M 325.577,86.961 C 325.577,86.961 252.77800000000002,68.853 207.382,168.077 C 207.382,168.077 179.216,84.307 236.508,24.853 C 236.508,24.853 279.473,28.552999999999997 325.577,86.961 Z&#10;M 63.85,147.633 C 63.85,147.633 129.28300000000002,221.024 207.382,168.077 C 207.382,168.077 197.894,248.272 88.373,252.902 C 88.373,252.902 46.97,195.76000000000002 63.85,147.633 Z&#10;M 271.345,299.489 C 271.345,299.489 286.641,211.386 207.382,168.077 C 207.382,168.077 235.272,270.012 140.677,298.157 C 140.677,298.157 208.74900000000002,327.019 271.345,299.489 Z&#10;M 173.182,24.58 C 173.182,24.58 123.11800000000001,90.585 207.382,168.077 C 207.382,168.077 86.397,158.50099999999998 90.655,79.88 C 90.655,79.88 126.12899999999999,38.911 173.182,24.58 Z" id="path_89" inkscape:label="Path 1" style=""/>
                        </g>
                     </g>
                  </g>
                  <g id="g_90" inkscape:label="Group 1" transform="matrix(1.0, 0.0, 0.0, 1.0, 148.963, 96.328)" style="fill-opacity:1.0;fill:url(#linearGradient_91);fill-rule:nonzero"/>
               </g>
            </g>
         </g>
      </g>
   </g>
</svg>
